<svg xmlns="http://www.w3.org/2000/svg" viewBox="0 0 512 512"><title>assignment-00</title><g style="isolation:isolate"><path d="M362.16,256.26c5.19-9,19.49-10.92,31-4.3s16.56,19.32,11.38,28.3L296.32,467.63l-53.74,35.48-141.9-81.93L115,290.87l40.8-70.66s19.84-44,69.72-15.16l-38,66.74,47.07-81.34L293.24,89c5.19-9,18.91-11.25,30.38-4.63S340,104,334.81,113l-55.36,95.5.16.1c5.19-9,18.91-11.25,30.39-4.63a25.42,25.42,0,0,1,11.5,13.29,17.39,17.39,0,0,1-.9,15c5.18-9,19.49-10.91,31-4.29S367.35,247.28,362.16,256.26Z" style="fill:#ffe1b2"/><path d="M362.16,256.26c5.19-9,19.49-10.92,31-4.3s16.56,19.32,11.38,28.3L296.32,467.63l-53.74,35.48-141.9-81.93L115,290.87l40.8-70.66s19.84-44,69.72-15.16l-38,66.74,47.07-81.34L293.24,89c5.19-9,18.91-11.25,30.38-4.63S340,104,334.81,113l-55.36,95.5.16.1c5.19-9,18.91-11.25,30.39-4.63a25.42,25.42,0,0,1,11.5,13.29,17.39,17.39,0,0,1-.9,15c5.18-9,19.49-10.91,31-4.29S367.35,247.28,362.16,256.26Z" style="fill:#999;opacity:0.25;mix-blend-mode:multiply"/><path d="M208.67,234.57l.54-1,16.26-28.56A82,82,0,0,0,212,198.83c-40-14.35-56.24,21.38-56.24,21.38L115,290.87,100.68,421.18l141.9,81.93,53.74-35.48,2.17-3.76C238.38,404.78,206.52,321.29,208.67,234.57Z" style="fill:#ffe1b2"/><path d="M323.69,217.31l-2.19-.05A25.42,25.42,0,0,0,310,204c-11.48-6.62-25.2-4.35-30.39,4.63l-.16-.1L334.81,113c5.18-9,.29-22-11.19-28.63S298.43,80,293.24,89L234.56,190.45l-.5-.29a105.5,105.5,0,1,1,89.63,27.15Z" style="fill:#f0652a"/><path d="M323.69,217.31l-2.19-.05A25.42,25.42,0,0,0,310,204c-11.48-6.62-25.2-4.35-30.39,4.63l-.16-.1L334.81,113c5.18-9,.29-22-11.19-28.63S298.43,80,293.24,89L234.56,190.45l-.5-.29a105.5,105.5,0,1,1,89.63,27.15Z" style="fill:#999;opacity:0.5;mix-blend-mode:multiply"/><path d="M214.8,60.34a105.54,105.54,0,0,0,19.26,129.83l.5.28L293.24,89c5.1-8.82,18.43-11.12,29.77-4.91l36-62.4A105.53,105.53,0,0,0,214.8,60.34Z" style="fill:#f0652a"/><path d="M396.91,245.41a35.36,35.36,0,0,0-25.89-4,33,33,0,0,0-15.68-20,37.5,37.5,0,0,0-7.16-3.17A113.22,113.22,0,1,0,225,191.86l-1.93,3.33c-15.81-7.75-30.52-9.51-43.8-5.23-19.61,6.31-28.78,23.76-30.22,26.73l-41.44,71.78-15,136.8L242.85,512,302,473,411.05,284C418.33,271.44,412,254.11,396.91,245.41ZM209.36,128.08a97,97,0,0,1,12-64A98,98,0,1,1,326,209.17a34.09,34.09,0,0,0-12.2-11.75,35.69,35.69,0,0,0-16.36-4.83l43.94-75.81c7.38-12.78,1.12-30.26-13.95-39s-33.34-5.38-40.71,7.39l-53.77,92.94A98.67,98.67,0,0,1,209.36,128.08Zm81.3,334.22-48.34,31.92L108.74,417.1,122.3,293.28l40-69.28.33-.64c.07-.14,6.83-14.42,21.43-19.05,9-2.85,19.4-1.57,31,3.81l-34.11,59.93L194,275.58,299.8,92.78c3.1-5.36,12.46-6.23,20-1.85s11.51,12.92,8.42,18.27L256.1,233.81l13.1,7.57L286,212.29l.18.09c3.1-5.37,12.46-6.23,20-1.86a18.12,18.12,0,0,1,8.15,9.24l.06.17a9.89,9.89,0,0,1-.37,8.54l-19.2,33.26,13.1,7.56L327.15,236c2.74-4.75,12.15-6.42,20.63-1.52,7.52,4.34,11,12.4,7.83,17.95l-19.2,33.25,13.11,7.57L368.71,260c2.75-4.76,12.15-6.42,20.63-1.52,7.72,4.45,11.66,12.67,8.61,18L290.66,462.3Z" style="fill:#222"/><path d="M337.49,186.3l-5.94-13.92a64.42,64.42,0,1,0-89.27-51.54l-15,1.82A79.56,79.56,0,1,1,337.49,186.3Z" style="fill:#fff"/></g></svg>