<svg xmlns="http://www.w3.org/2000/svg" viewBox="0 0 512 512"><title>assignment-10</title><g style="isolation:isolate"><polygon points="460.29 24.37 460.29 131.28 293.99 131.28 293.99 487.63 175.21 487.63 175.21 131.28 8.91 131.28 8.91 24.37 460.29 24.37" style="fill:#20b5e9"/><polygon points="8.91 24.37 8.91 131.28 175.21 131.28 175.21 487.63 234.6 487.63 234.6 24.37 8.91 24.37" style="fill:#20b5e9"/><polygon points="8.91 24.37 8.91 131.28 175.21 131.28 175.21 487.63 234.6 487.63 234.6 24.37 8.91 24.37" style="fill:#999;opacity:0.25;mix-blend-mode:multiply"/><path d="M302.9,496.54H166.3V140.18H0V15.46H469.2V140.18H302.9ZM184.12,478.72h101V122.37h166.3V33.28H17.82v89.09h166.3V478.72Z" style="fill:#222"/><polygon points="59.39 95.64 41.58 95.64 41.58 57.04 210.84 57.04 210.84 74.85 59.39 74.85 59.39 95.64" style="fill:#fff"/><rect x="228.66" y="57.04" width="29.7" height="17.82" style="fill:#fff"/><polygon points="436.53 178.79 495.93 273.82 460.29 273.82 460.29 380.72 495.93 380.72 436.53 475.75 377.14 380.72 412.78 380.72 412.78 273.82 377.14 273.82 436.53 178.79" style="fill:#eee"/><polygon points="377.14 273.82 412.78 273.82 412.78 380.72 377.14 380.72 436.53 475.75 436.53 178.79 377.14 273.82" style="fill:#eee"/><polygon points="377.14 273.82 412.78 273.82 412.78 380.72 377.14 380.72 436.53 475.75 436.53 178.79 377.14 273.82" style="fill:#999;opacity:0.25;mix-blend-mode:multiply"/><path d="M436.53,492.56,361.07,371.82h42.8V282.73h-42.8L436.53,162,512,282.73H469.2v89.09H512ZM393.21,389.63l43.32,69.31,43.32-69.31H451.38V264.91h28.47L436.53,195.6l-43.32,69.31h28.47V389.63Z" style="fill:#222"/></g></svg>