<svg xmlns="http://www.w3.org/2000/svg" viewBox="0 0 512 512">
  <title>assignment-12</title>
  <g style="isolation:isolate"><polygon points="477.69 192.66 477.69 382.68 451.3 382.68 60.7 382.68 34.31 382.68 34.31 192.66 60.7 192.66 451.3 192.66 477.69 192.66" style="fill:#eee"/><polygon points="477.69 192.66 477.69 382.68 451.3 382.68 60.7 382.68 34.31 382.68 34.31 192.66 60.7 192.66 451.3 192.66 477.69 192.66" style="fill:#999;opacity:0.25;mix-blend-mode:multiply"/><polygon points="450.98 81.81 345.73 81.81 345.73 7.92 450.98 81.81" style="fill:#20b5e9"/><polygon points="450.98 81.81 345.73 81.81 345.73 7.92 450.98 81.81" style="fill:#999;opacity:0.5;mix-blend-mode:multiply"/><rect x="60.7" y="382.68" width="390.6" height="121.4" style="fill:#20b5e9"/><polygon points="451.3 82.03 451.3 192.66 60.7 192.66 60.7 7.92 345.73 7.92 345.73 81.81 450.98 81.81 451.3 82.03" style="fill:#20b5e9"/><rect x="60.7" y="382.68" width="195.3" height="121.4" style="fill:#20b5e9"/><rect x="60.7" y="382.68" width="195.3" height="121.4" style="fill:#999;opacity:0.25;mix-blend-mode:multiply"/><rect x="60.7" y="7.92" width="195.3" height="184.74" style="fill:#20b5e9"/><rect x="60.7" y="7.92" width="195.3" height="184.74" style="fill:#999;opacity:0.25;mix-blend-mode:multiply"/><polygon points="477.69 192.66 451.3 192.66 60.7 192.66 34.31 192.66 34.31 292.95 477.69 292.95 477.69 192.66" style="fill:#eee"/><path
    d="M485.61,184.74H459.22V77.79L348.23,0H52.78V184.74H26.39V390.6H52.78V512H459.22V390.6h26.39V184.74Zm-132-161.59L425.93,73.9H353.65Zm-285-7.31H337.81V89.73H443.38v95H68.62ZM443.38,496.17H68.62V390.6H443.38V496.17Zm26.39-121.41H42.23V200.58H469.77V374.76Z"
    style="fill:#222"/><rect x="435.46" y="216.41" width="21.11" height="15.84" style="fill:#222"/><rect x="435.46" y="343.09" width="21.11" height="15.83" style="fill:#222"/><rect x="55.42" y="343.09" width="21.11" height="15.83" style="fill:#222"/><rect x="55.42" y="216.41" width="21.11" height="15.84" style="fill:#222"/><path
    d="M366.84,332.54H345.73a18.5,18.5,0,0,1-18.47-18.48H311.42a34.35,34.35,0,0,0,34.31,34.31h21.11a34.31,34.31,0,0,0,0-68.62H345.73a18.47,18.47,0,0,1,0-36.94h21.11a18.49,18.49,0,0,1,18.48,18.47h15.83A34.35,34.35,0,0,0,366.84,227H345.73a34.31,34.31,0,0,0,0,68.62h21.11a18.48,18.48,0,1,1,0,37Z"
    style="fill:#222"/><path
    d="M261.28,332.54H240.16a18.5,18.5,0,0,1-18.47-18.48H205.86a34.34,34.34,0,0,0,34.3,34.31h21.12a34.31,34.31,0,0,0,0-68.62H240.16a18.47,18.47,0,0,1,0-36.94h21.12a18.49,18.49,0,0,1,18.47,18.47h15.84A34.35,34.35,0,0,0,261.28,227H240.16a34.31,34.31,0,0,0,0,68.62h21.12a18.48,18.48,0,0,1,0,37Z"
    style="fill:#222"/><path d="M142.51,353.65A47.56,47.56,0,0,0,190,306.14H174.18a31.67,31.67,0,1,1-63.34,0V274.47a31.67,31.67,0,0,1,63.34,0H190a47.51,47.51,0,0,0-95,0v31.67A47.56,47.56,0,0,0,142.51,353.65Z" style="fill:#222"/><rect x="113.48" y="432.83" width="285.03" height="15.83" style="fill:#fff"/><polygon points="126.36 145.48 86.45 105.57 126.36 65.66 137.56 76.86 108.84 105.57 137.56 134.28 126.36 145.48" style="fill:#fff"/><rect x="145.15" y="100.29" width="17.15" height="15.83" style="fill:#fff"/><rect x="170.88" y="100.29" width="17.15" height="15.83" style="fill:#fff"/><rect x="196.62" y="100.29" width="17.15" height="15.83" style="fill:#fff"/><polygon points="231.91 145.48 220.71 134.28 249.42 105.57 220.71 76.86 231.91 65.66 271.81 105.57 231.91 145.48" style="fill:#fff"/></g>
</svg>
