<svg xmlns="http://www.w3.org/2000/svg" viewBox="0 0 512 512"><title>assingment-11</title><g style="isolation:isolate"><path d="M467.13,293V430.18H430.19v42.23H293V430.18h-73.9v42.23H81.81V430.18H44.87V293H81.81v-73.9H44.87V81.81H81.81V44.87H219.05V81.81H293V44.87H430.18V81.81h36.95V219.05H430.18V293ZM293,293v-73.9h-73.9V293Z" style="fill:#20b5e9"/><rect x="219.05" y="219.05" width="73.9" height="73.9" style="fill:#eee"/><polygon points="504.08 430.19 504.08 504.08 430.19 504.08 430.19 472.41 430.19 430.19 467.13 430.19 504.08 430.19" style="fill:#eee"/><polygon points="504.08 219.05 504.08 292.95 467.13 292.95 430.19 292.95 430.19 219.05 467.13 219.05 504.08 219.05" style="fill:#eee"/><polygon points="504.08 7.92 504.08 81.81 467.13 81.81 430.19 81.81 430.19 44.87 430.19 7.92 504.08 7.92" style="fill:#eee"/><polygon points="292.95 472.41 292.95 504.08 219.05 504.08 219.05 472.41 219.05 430.19 256 430.19 292.95 430.19 292.95 472.41" style="fill:#eee"/><polygon points="292.95 44.87 292.95 81.81 256 81.81 219.05 81.81 219.05 44.87 219.05 7.92 292.95 7.92 292.95 44.87" style="fill:#eee"/><polygon points="81.81 472.41 81.81 504.08 7.92 504.08 7.92 430.19 44.87 430.19 81.81 430.19 81.81 472.41" style="fill:#eee"/><polygon points="81.81 219.05 81.81 292.95 44.87 292.95 7.92 292.95 7.92 219.05 44.87 219.05 81.81 219.05" style="fill:#eee"/><polygon points="81.81 44.87 81.81 81.81 44.87 81.81 7.92 81.81 7.92 7.92 81.81 7.92 81.81 44.87" style="fill:#eee"/><g style="opacity:0.25;mix-blend-mode:multiply"><rect x="219.05" y="219.05" width="73.9" height="73.9" style="fill:#999"/><polygon points="504.08 430.19 504.08 504.08 430.19 504.08 430.19 472.41 430.19 430.19 467.13 430.19 504.08 430.19" style="fill:#999"/><polygon points="504.08 219.05 504.08 292.95 467.13 292.95 430.19 292.95 430.19 219.05 467.13 219.05 504.08 219.05" style="fill:#999"/><polygon points="504.08 7.92 504.08 81.81 467.13 81.81 430.19 81.81 430.19 44.87 430.19 7.92 504.08 7.92" style="fill:#999"/><polygon points="292.95 472.41 292.95 504.08 219.05 504.08 219.05 472.41 219.05 430.19 256 430.19 292.95 430.19 292.95 472.41" style="fill:#999"/><polygon points="292.95 44.87 292.95 81.81 256 81.81 219.05 81.81 219.05 44.87 219.05 7.92 292.95 7.92 292.95 44.87" style="fill:#999"/><polygon points="81.81 472.41 81.81 504.08 7.92 504.08 7.92 430.19 44.87 430.19 81.81 430.19 81.81 472.41" style="fill:#999"/><polygon points="81.81 219.05 81.81 292.95 44.87 292.95 7.92 292.95 7.92 219.05 44.87 219.05 81.81 219.05" style="fill:#999"/><polygon points="81.81 44.87 81.81 81.81 44.87 81.81 7.92 81.81 7.92 7.92 81.81 7.92 81.81 44.87" style="fill:#999"/></g><polygon points="219.05 292.95 219.05 219.05 256 219.05 256 81.81 219.05 81.81 219.05 44.87 81.81 44.87 81.81 81.81 44.87 81.81 44.87 219.05 81.81 219.05 81.81 292.95 44.87 292.95 44.87 430.19 81.81 430.19 81.81 472.41 219.05 472.41 219.05 430.19 256 430.19 256 292.95 219.05 292.95" style="fill:#20b5e9"/><polygon points="219.05 292.95 219.05 219.05 256 219.05 256 81.81 219.05 81.81 219.05 44.87 81.81 44.87 81.81 81.81 44.87 81.81 44.87 219.05 81.81 219.05 81.81 292.95 44.87 292.95 44.87 430.19 81.81 430.19 81.81 472.41 219.05 472.41 219.05 430.19 256 430.19 256 292.95 219.05 292.95" style="fill:#999;opacity:0.25;mix-blend-mode:multiply"/><rect x="34.31" y="36.95" width="21.11" height="15.83" style="fill:#eee"/><rect x="34.31" y="248.08" width="21.11" height="15.83" style="fill:#eee"/><rect x="34.31" y="459.22" width="21.11" height="15.83" style="fill:#eee"/><rect x="245.44" y="459.22" width="21.11" height="15.83" style="fill:#eee"/><rect x="245.44" y="36.95" width="21.11" height="15.83" style="fill:#eee"/><rect x="456.58" y="36.95" width="21.11" height="15.83" style="fill:#eee"/><rect x="456.58" y="248.08" width="21.11" height="15.83" style="fill:#eee"/><rect x="456.58" y="459.22" width="21.11" height="15.83" style="fill:#eee"/><rect x="245.44" y="248.08" width="21.11" height="15.83" style="fill:#eee"/><path d="M512,89.73V0H422.27V37H300.87V0H211.13V37H89.73V0H0V89.73H37v121.4H0v89.74H37v121.4H0V512H89.73V480.33h121.4V512h89.74V480.33h121.4V512H512V422.27H475.05V300.87H512V211.13H475.05V89.73ZM438.1,15.84h58.07V73.9H438.1ZM227,15.84H285V73.9H227V15.84Zm-211.13,0H73.9V73.9H15.84Zm0,211.13H73.9V285H15.84ZM73.9,496.17H15.84V438.1H73.9Zm211.13,0H227V438.1H285Zm211.14,0H438.1V438.1h58.07Zm0-211.14H438.1V227h58.07Zm-36.95-73.9h-37v89.74h37v121.4h-37v42.22H300.87V422.27H211.13v42.22H89.73V422.27H52.78V300.87h37V211.13H52.78V89.73h37V52.78h121.4v37h89.74V52.78h121.4v37h37v121.4Z" style="fill:#222"/><path d="M211.13,300.87h89.74V211.13H211.13ZM227,227H285V285H227V227Z" style="fill:#222"/></g></svg>