<?xml version="1.0" standalone="no"?>
<!DOCTYPE svg PUBLIC "-//W3C//DTD SVG 20010904//EN"
 "http://www.w3.org/TR/2001/REC-SVG-20010904/DTD/svg10.dtd">
<svg version="1.0" xmlns="http://www.w3.org/2000/svg"
 width="431.000000pt" height="431.000000pt" viewBox="0 0 431.000000 431.000000"
 preserveAspectRatio="xMidYMid meet">
<metadata>
Created by potrace 1.11, written by Peter Selinger 2001-2013
</metadata>
<g transform="translate(0.000000,431.000000) scale(0.100000,-0.100000)"
fill="#000000" stroke="none">
<path d="M1215 3698 l-940 -471 940 -470 940 -469 940 470 940 470 -940 470
-940 470 -940 -470z"/>
<path d="M497 2789 c-119 -60 -217 -111 -217 -114 0 -8 1859 -935 1875 -935
16 0 1875 927 1875 935 0 3 -98 54 -217 114 l-218 109 -720 -360 -720 -360
-720 360 -720 360 -218 -109z"/>
<path d="M488 2234 c-115 -57 -208 -106 -208 -109 0 -3 422 -216 937 -474
l938 -469 937 469 c516 258 938 471 938 474 0 8 -419 215 -435 215 -8 0 -336
-160 -728 -356 l-712 -356 -713 356 c-391 196 -720 356 -729 355 -10 0 -111
-47 -225 -105z"/>
<path d="M1000 1320 l0 -330 577 -289 578 -289 577 289 578 289 0 330 c0 243
-3 330 -12 330 -6 0 -266 -129 -577 -286 l-566 -287 -572 287 c-315 157 -575
286 -578 286 -3 0 -5 -148 -5 -330z"/>
<path d="M1000 787 l0 -72 578 -289 577 -288 578 288 577 289 0 72 c0 40 -2
73 -5 73 -2 0 -25 -10 -50 -22 -28 -14 -45 -29 -45 -40 0 -14 -124 -80 -528
-282 l-527 -264 -528 264 c-403 202 -527 268 -527 282 0 11 -17 26 -45 40 -25
12 -48 22 -50 22 -3 0 -5 -33 -5 -73z"/>
</g>
</svg>
