<svg xmlns="http://www.w3.org/2000/svg" viewBox="0 0 512 512"><title>assignment-01</title><g style="isolation:isolate"><polygon points="504.08 110.84 504.08 490.89 7.92 490.89 7.92 21.11 187.38 21.11 240.16 63.34 240.16 110.84 488.25 110.84 504.08 110.84" style="fill:#aea79f"/><polygon points="504.08 110.84 504.08 490.89 7.92 490.89 7.92 21.11 187.38 21.11 240.16 63.34 240.16 110.84 488.25 110.84 504.08 110.84" style="fill:#fff;opacity:0.5;mix-blend-mode:soft-light"/><polygon points="488.25 110.84 240.16 110.84 240.16 63.34 419.63 63.34 488.25 110.84" style="fill:#aea79f"/><polygon points="488.25 110.84 240.16 110.84 240.16 63.34 419.63 63.34 488.25 110.84" style="fill:#999;opacity:0.25;mix-blend-mode:multiply"/><path d="M148.56,110.84h91.6V63.34L187.38,21.11H7.92V490.89H504.08V435.3C327,415,184.32,282.69,148.56,110.84Z" style="fill:#aea79f"/><polygon points="306 303.5 263.5 303.5 263.5 261 248.5 261 248.5 303.5 206 303.5 206 318.5 248.5 318.5 248.5 361 263.5 361 263.5 318.5 306 318.5 306 303.5" style="fill:#222;mix-blend-mode:multiply"/><path d="M490.72,102.93,422.1,55.42H242.94L190.16,13.2H0V498.8H512V102.93Zm-27.82,0H248.08V71.26H417.15Zm33.27,380H15.84V29H184.6l47.65,38.12v35.78H50.14v15.83h446Z" style="fill:#222"/><polygon points="52.78 190.02 36.95 190.02 36.95 139.88 87.09 139.88 87.09 155.71 52.78 155.71 52.78 190.02" style="fill:#fff"/><polygon points="475.05 190.02 459.22 190.02 459.22 155.71 424.91 155.71 424.91 139.88 475.05 139.88 475.05 190.02" style="fill:#fff"/><polygon points="475.05 461.86 424.91 461.86 424.91 446.02 459.22 446.02 459.22 411.71 475.05 411.71 475.05 461.86" style="fill:#fff"/><polygon points="87.09 461.86 36.95 461.86 36.95 411.71 52.78 411.71 52.78 446.02 87.09 446.02 87.09 461.86" style="fill:#fff"/></g></svg>