<svg xmlns="http://www.w3.org/2000/svg" viewBox="0 0 512 512">
  <title>hw-icon-cern</title>
  <path
    d="M321,81.86c1.25.43,2.54.78,3.75,1.3q5.21,2.24,10.36,4.61a4.82,4.82,0,0,1,1.73,1.51,112,112,0,0,1,8.46,13.48,213,213,0,0,1,13.31,30.84,419.27,419.27,0,0,1,13.25,46.81c2.52,11.1,4.82,22.25,7.25,33.37q4.35,19.92,8.77,39.83,5.87,26.58,11.77,53.17Q403,321.9,406.39,337q4.62,20.64,9.23,41.29,5.38,24.07,10.8,48.15l9.6,42.62q4.35,19.29,8.68,38.58c.08.39.13.8.22,1.29a4.62,4.62,0,0,1-1,.22c-2.45,0-4.9,0-7.34,0-1.13,0-1.2-.08-1.46-1.22q-2-9-4-18.09l-5.52-25.11q-3.5-15.94-7-31.87-5.21-23.7-10.45-47.39-5.54-25.19-11.08-50.36-5.4-24.58-10.82-49.15-4-18.23-8-36.46-5.12-23.3-10.25-46.58c-.77-3.51-1.52-7-2.3-10.54a2.25,2.25,0,0,0-.87-1.73c-.07.52-.16.88-.17,1.25-.09,3-.16,6.09-.25,9.13a137.29,137.29,0,0,1-1.33,14.59,156.58,156.58,0,0,1-4.25,20.56,165.46,165.46,0,0,1-7.82,22,219,219,0,0,1-19.86,35.31c-5.12,7.57-10.87,14.68-16.72,21.71q-12.94,15.54-26.82,30.25-13.17,14-26.37,28-17.6,18.71-35.2,37.42l-30.45,32.38-30.83,32.79-21.34,22.7c-2.94,3.13-5.9,6.24-8.81,9.39a2.8,2.8,0,0,1-2.3,1c-3,0-5.9,0-8.86,0-.39,0-.79-.05-1.49-.11.56-.63.92-1.08,1.32-1.5l20.22-21.48q12.09-12.85,24.16-25.74,9.48-10.09,19-20.17,10.81-11.49,21.62-23l26-27.65L260,362.06q10.29-10.95,20.56-21.91a11.73,11.73,0,0,0,.77-1c-.73-.35-1.1.08-1.49.34-2.36,1.52-4.68,3.12-7.08,4.59a159.55,159.55,0,0,1-37,16.53,168.88,168.88,0,0,1-20.42,4.88c-4.26.74-8.56,1.29-12.86,1.76-3.7.41-7.43.7-11.16.84-5.2.18-10.42.29-15.63.22-3.5-.06-7-.49-10.48-.75-4.78-.36-9.51-1.09-14.23-1.91a171.74,171.74,0,0,1-17.22-4,184.21,184.21,0,0,1-71-38.58,167.47,167.47,0,0,1-24.15-26.05,155.83,155.83,0,0,1-12.25-19.25c-.24-.45-.33-1.09-1.25-1.2.14.69.22,1.3.39,1.88q2,6.9,4.09,13.79,7.23,24.41,14.45,48.8L55.6,380.2q2.37,8,4.74,16.05c.13.43.22.87.35,1.42-.47.06-.82.15-1.17.16H52.87c-1.31,0-1.36-.05-1.76-1.45q-3.27-11.29-6.53-22.59-5.23-18.14-10.47-36.28c-5.6-19.54-11.26-39.07-16.75-58.65q-4.48-16-8.47-32.08c-2-8.28-3.73-16.64-5.39-25-.89-4.51-1.42-9.1-2.06-13.66A171.52,171.52,0,0,1,.12,178.85c.14-4.09.62-8.18,1-12.26a155,155,0,0,1,3-18.54A181.55,181.55,0,0,1,13.53,118,187.69,187.69,0,0,1,43.12,68.67,183.81,183.81,0,0,1,83.46,32.44a175.28,175.28,0,0,1,46.73-21.83,163.86,163.86,0,0,1,24.57-5.37c4.88-.67,9.81-1,14.72-1.47,14-1.34,28-.87,42.06-.89q25.77,0,51.53.1t51.51.27L357,3.52l41.69.28,39.6.28,37.8.28q17.18.12,34.34.27h.84a.7.7,0,0,1,.77.77q0,3.4,0,6.79c0,.62-.39.72-.93.71-4.52-.07-9.05-.17-13.57-.19-9.74,0-19.48,0-29.22-.05q-22.57-.11-45.14-.27l-43.21-.28-46-.28-43.2-.27q-22.86-.15-45.7-.29c-3.05,0-6.09-.13-9.14-.18a1.82,1.82,0,0,0-1.69.51c3,1.15,5.93,1.79,8.75,2.84s5.74,2,8.57,3.14,5.64,2.31,8.41,3.57,5.52,2.58,8.23,4,5.38,2.86,8,4.38,5.15,3.08,7.66,4.72,5.07,3.38,7.54,5.17S296.27,43,298.64,45s4.7,3.89,7,5.9,4.47,4.11,6.58,6.39c-1.2-.35-2.4-.76-3.62-1Q302.31,54.8,296,53.5a4.3,4.3,0,0,1-2-.93,171.22,171.22,0,0,0-22.92-16.21,173.71,173.71,0,0,0-40-17.32,166.6,166.6,0,0,0-20.34-4.6c-4.09-.64-8.22-1-12.33-1.49a133.51,133.51,0,0,0-19.07-.74c-3.86.13-7.73.41-11.58.74-3.53.3-7.07.66-10.57,1.17s-7.09,1.2-10.6,2A170.63,170.63,0,0,0,113.3,26.89a175,175,0,0,0-81.49,73.84A171.54,171.54,0,0,0,17.69,133a154.91,154.91,0,0,0-5.93,24.85C11,162.92,10.37,168,9.92,173.09A165.48,165.48,0,0,0,9.65,194a158.09,158.09,0,0,0,1.87,18.42A173.7,173.7,0,0,0,152.74,356.61c5.32.94,10.67,1.58,16,2.06a181.93,181.93,0,0,0,22.27.4,158.65,158.65,0,0,0,15.83-1.48,172.13,172.13,0,0,0,34.6-8.48,170,170,0,0,0,26.16-11.94,175.86,175.86,0,0,0,25.45-17.41,175.09,175.09,0,0,0,45.62-57.48,171,171,0,0,0,12-31.94A167.06,167.06,0,0,0,355,209.07a142.24,142.24,0,0,0,1.37-15.83c.06-3.32.29-6.64.2-10-.12-4.14-.42-8.29-.76-12.42a151.75,151.75,0,0,0-4.48-25.57,181.16,181.16,0,0,0-12.58-34.22A166,166,0,0,0,321.36,82.8c-.19-.24-.36-.49-.53-.74Z"
    style="fill:#3a87ad"/>
    <path
    d="M132.59,124l-7.29-5.76c.54-.63,1-1.19,1.48-1.72a188.72,188.72,0,0,1,27.8-25.11A182.33,182.33,0,0,1,192.7,69.91a179,179,0,0,1,34.24-10.36q7.94-1.56,16-2.37c4.87-.48,9.74-.86,14.63-.87s9.7-.09,14.53.16a177.82,177.82,0,0,1,19.24,2.06,181.56,181.56,0,0,1,88.14,40.3,199.62,199.62,0,0,1,20.4,19.9,165.51,165.51,0,0,1,25.47,38.73,202.7,202.7,0,0,1,10.08,24.86,172.91,172.91,0,0,1,6.44,25.73c.62,3.72,1,7.49,1.44,11.24.05.32.16.64.32,1.23a4.33,4.33,0,0,0,.71-2.42q.71-6.94,1.36-13.9c.32-3.39.59-6.79.92-10.19s.7-6.6,1-9.9.59-6.61.91-9.91.67-6.6,1-9.9c.23-2.34.42-4.68.65-7s.49-4.86.73-7.29.43-4.59.65-6.88.43-4.59.65-6.88.49-4.86.73-7.29q.51-5.16,1-10.32c.23-2.34.43-4.68.66-7s.49-4.86.72-7.29.44-4.59.66-6.88c.33-3.44.68-6.88,1-10.32.23-2.34.43-4.68.66-7s.48-4.86.72-7.29.43-4.59.66-6.88.48-4.86.71-7.29.45-4.77.68-7.16c.08-.87.19-1.74.27-2.61,0-.42.25-.72.69-.72h8.14a13.68,13.68,0,0,1,.07,1.61c-.32,3.26-.66,6.51-1,9.76-.23,2.3-.43,4.59-.66,6.89-.33,3.43-.68,6.87-1,10.31-.22,2.3-.42,4.59-.65,6.88-.33,3.35-.67,6.7-1,10-.22,2.21-.43,4.41-.65,6.61l-1,10.31c-.22,2.2-.42,4.41-.64,6.61l-1,10c-.21,2.15-.42,4.31-.64,6.46-.34,3.4-.69,6.79-1,10.18-.32,3.21-.62,6.42-.93,9.63-.2,2.06-.42,4.13-.63,6.19l-.75,7.15-1,9.34c-.23,2.2-.44,4.4-.67,6.6-.33,3.12-.67,6.23-1,9.35-.32,2.93-.62,5.86-.93,8.79s-.61,5.78-.93,8.66-.67,5.68-1,8.51-.58,5.41-.92,8.11c-.4,3.2-.85,6.39-1.3,9.58-.66,4.65-1.26,9.31-2,13.95q-1.38,8.46-3,16.87a267.88,267.88,0,0,1-9.38,36.11,188.16,188.16,0,0,1-15.2,33.16c-1.81,3.11-3.73,6.15-5.6,9.23-.21.35-.45.68-.84,1.27l-.92-4c-.52-2.24-1-4.49-1.59-6.72a3.5,3.5,0,0,1,.44-2.74c2.29-4.1,4.63-8.2,6.72-12.41a165.4,165.4,0,0,0,13.55-39c1.07-5,1.95-10,2.72-15.09.5-3.23.72-6.5.92-9.77.24-3.77.49-7.55.43-11.33-.07-4.88-.36-9.76-.7-14.64a179.91,179.91,0,0,0-4.41-28.24,195.47,195.47,0,0,0-12.88-37.77A168.77,168.77,0,0,0,346.62,87a170.66,170.66,0,0,0-45.89-17.39,163.42,163.42,0,0,0-16.59-2.88A140,140,0,0,0,268,65.57c-2.86,0-5.72-.25-8.57-.16-4.33.14-8.66.42-13,.73a156.55,156.55,0,0,0-27.6,4.68A166.39,166.39,0,0,0,187.75,82.2,172.89,172.89,0,0,0,146,110.52q-6.44,5.88-12.3,12.36C133.36,123.22,133,123.54,132.59,124Z"
    style="fill:#3a87ad"/>
    <path
    d="M396,356.15c.29,1.19.54,2.15.75,3.12.5,2.25.93,4.51,1.5,6.74a2.38,2.38,0,0,1-.62,2.49A181.78,181.78,0,0,1,384,382.05a184.92,184.92,0,0,1-34.79,24.49A179.82,179.82,0,0,1,303.56,424c-5.42,1.26-10.92,2.21-16.42,3.05-4.05.62-8.15.85-12.24,1.2a140.17,140.17,0,0,1-15.06.51c-3.09-.06-6.17-.28-9.25-.48-2.62-.16-5.24-.34-7.85-.62-2.84-.31-5.67-.67-8.48-1.15-3.72-.64-7.42-1.42-11.12-2.14-.48-.1-.95-.25-1.57-.41,1-1.12,2-2.14,2.89-3.14,1.3-1.38,2.62-2.73,3.9-4.12a1.7,1.7,0,0,1,1.71-.59c5.19.8,10.37,1.66,15.59,2.27,3.57.42,7.17.49,10.77.68,1.75.1,3.5.19,5.25.17,6.05-.07,12.08-.35,18.1-.95a172.58,172.58,0,0,0,40.4-9A170.79,170.79,0,0,0,348.8,396a174.66,174.66,0,0,0,24.7-17.27,169.24,169.24,0,0,0,21.41-21.42C395.2,357,395.5,356.67,396,356.15Z"
    style="fill:#3a87ad"/><path
    d="M248.05,144a21.44,21.44,0,0,1,2.81,0,2.53,2.53,0,0,1,1.23.8c3.42,3.56,6.81,7.16,10.23,10.71q11.46,11.94,23,23.84l18.23,19a4.59,4.59,0,0,0,1.31,1c.83-18.16,0-36.23-.89-54.34a4.23,4.23,0,0,1,1-.13,24.06,24.06,0,0,0,6.62,0c1-.12,1.14,0,1.1,1-.14,3.18-.31,6.36-.46,9.54,0,.73-.1,1.47-.1,2.21-.12,12.74-.25,25.47-.32,38.21,0,6.14,0,12.28.09,18.41,0,1.39.15,2.77.17,4.15,0,1.08-.1,1.1-1.19,1.2a3.45,3.45,0,0,1-3.21-1.37q-6.78-7.66-13.77-15.16c-7.5-8-15.07-16-22.62-24-4.35-4.59-8.73-9.15-13.09-13.72-.64-.67-1.25-1.36-1.9-2a10,10,0,0,0-1.07-.82c-.08.72-.17,1.19-.17,1.66q0,4.71,0,9.41c0,6,0,11.91.06,17.87.09,5.39.35,10.78.57,16.18.13,3,.33,6.07.49,9.11,0,.49,0,1,0,1.69-1.54-.09-2.89-.24-4.25-.24s-2.74.15-4.11.24a4.75,4.75,0,0,1-.23-2.79c.1-2.49.34-5,.44-7.45.15-3.92.28-7.84.31-11.76.1-11,.2-22,.21-33,0-5.68-.17-11.35-.26-17C248.16,145.74,248.1,145,248.05,144Z"
    style="fill:#3a87ad"/>
    <path
    d="M180.78,144.86c.52,0,.89-.08,1.25-.07,2.07.09,4.15.14,6.22.31a98.4,98.4,0,0,0,13.41-.23c5.31-.29,10.61-.28,15.78,1.26a19.63,19.63,0,0,1,5.28,2.38,13.42,13.42,0,0,1,6,8.77,18.41,18.41,0,0,1-1.8,13.27,20.41,20.41,0,0,1-8.29,7.74,34.81,34.81,0,0,1-10.83,3.64c-.26,0-.51.13-1,.25a28.56,28.56,0,0,0,3.11,4.11c1.08,1.38,2.2,2.73,3.32,4.08l3.25,4,3.34,4.06,3.26,4c1.12,1.35,2.24,2.71,3.37,4s2.2,2.61,3.3,3.92,2.24,2.69,3.38,4l3.53,4.11h-2.55c-2.3,0-4.61-.12-6.9,0-3.21.21-3.19.29-5-2.42-6-9-12.2-17.94-19-26.41-1.73-2.16-3.6-4.21-5.38-6.33a2.73,2.73,0,0,0-2.51-1.13c-1.06.09-2.13,0-3.19,0s-1.15.15-1.2,1.22c0,.33,0,.65,0,1,0,4.25,0,8.5,0,12.74.13,5.77.38,11.53.59,17.29,0,1.28.15,2.55.23,3.88-2,.45-3.76-.17-5.53-.06s-3.57.18-5.36.26a6.84,6.84,0,0,1-.2-3.12c0-.69.14-1.37.17-2.07.72-15.4.66-30.82.53-46.23,0-5.95-.36-11.89-.56-17.84,0-1.06-.15-2.12-.2-3.18A10.28,10.28,0,0,1,180.78,144.86Zm10.16,25.4h0c0,2.26,0,4.52,0,6.79,0,1.41.12,1.52,1.49,1.53,2.58,0,5.17.08,7.75,0a28.74,28.74,0,0,0,10-2.11c5.58-2.34,9.08-6.73,9-13.42a13,13,0,0,0-8.73-12.69,25.64,25.64,0,0,0-10.87-1.51c-2.16.12-4.32.29-6.48.42-1.39.09-1.5.18-1.56,1.52-.09,1.84-.19,3.68-.24,5.53Q191.11,163.26,190.94,170.26Z"
    style="fill:#3a87ad"/>
    <path
    d="M165.47,144.8v6.82c-11.1-.68-22.2-1.48-33.45-1.23-.08,1.09-.21,2.05-.22,3-.06,5.22-.07,10.43-.12,15.65,0,1.89-.1,3.78-.14,5.67,0,.6,0,1.2,0,1.8.06,1,.24,1.12,1.16,1.19.32,0,.65,0,1,0,4.66-.11,9.32-.15,14-.34,3.36-.13,6.71-.46,10.07-.69.26,0,.53,0,.79,0v7a8.77,8.77,0,0,1-3.22.09c-.51,0-1-.15-1.51-.17-5.07-.18-10.14-.36-15.21-.51-1.85-.06-3.7-.06-5.54-.05-1.34,0-1.48.15-1.55,1.52,0,.6,0,1.2,0,1.8,0,6.55,0,13.11.07,19.66,0,1.75.1,3.5.17,5.25,0,.92.16,1.07,1.07,1.06,2.49,0,5-.08,7.48-.14.78,0,1.56-.08,2.34-.11,4.75-.18,9.5-.34,14.25-.55,3.22-.14,6.44-.35,9.67-.52a1.15,1.15,0,0,1,.4.11c0,2.17,0,4.33,0,6.48,0,.64-.28.94-.92.93-2,0-4.06-.05-6.09-.11-.92,0-1.84-.17-2.76-.17-8.91,0-17.82,0-26.72,0-2.63,0-5.26.17-7.88.24-1.4,0-1.51-.07-1.47-1.47.19-5.53.48-11.06.58-16.6q.21-12.24.19-24.5c0-5.53-.11-11.07-.24-16.61-.11-4.28-.34-8.57-.52-12.85,0-.19,0-.37,0-.55,0-1,.12-1.14,1.09-1.16.6,0,1.2,0,1.8,0,1.38.06,2.77.18,4.15.2,7.29.09,14.58.22,21.87.2,4.38,0,8.76-.27,13.14-.41C163.83,144.78,164.56,144.8,165.47,144.8Z"
    style="fill:#3a87ad"/>
    <path
    d="M108,148.59c-.88,2.86-1.72,5.57-2.61,8.48a10.83,10.83,0,0,1-1-.81c-4.77-4.89-10.69-7.42-17.36-8.35-14.91-2.08-28,6.85-32.62,20.39a40.25,40.25,0,0,0-2,10.83,35.87,35.87,0,0,0,2.65,16.5c4.53,10.49,12.48,17,23.74,18.84,9.51,1.58,18.11-1,25.55-7.18,1.16-1,2.34-1.91,3.73-3a9.55,9.55,0,0,1,0,1.56c-.33,1.9-.71,3.8-1,5.71a2.6,2.6,0,0,1-1.27,1.85,42,42,0,0,1-14.16,5.7,48.2,48.2,0,0,1-14.17.76,40.94,40.94,0,0,1-20.79-7.18A34.47,34.47,0,0,1,42.75,192a43.9,43.9,0,0,1-.9-15.24,36.06,36.06,0,0,1,7-18.09,36.8,36.8,0,0,1,16.28-12.22,47.07,47.07,0,0,1,19.26-3.09,71.62,71.62,0,0,1,22.76,4.78A7.63,7.63,0,0,1,108,148.59Z"
    style="fill:#3a87ad"/>
    <path
    d="M116.16,338.23c-.71-.23-1.18-.37-1.64-.54a61.41,61.41,0,0,1-12.07-5.78,5.5,5.5,0,0,1-2-2.23A192.86,192.86,0,0,1,86.39,294.4a167.58,167.58,0,0,1-4.9-22.25c-.72-5-1.32-10-1.85-15.08-.26-2.43-.28-4.88-.36-7.32,0-1.35.08-1.47,1.36-1.48q3.26,0,6.51,0c1.22,0,1.3.09,1.4,1.35.18,2.49.29,5,.51,7.45.24,2.75.46,5.52.89,8.24.82,5.19,1.63,10.38,2.72,15.51a170.59,170.59,0,0,0,11.47,34.73,183.16,183.16,0,0,0,11.5,21.61C115.8,337.42,115.9,337.7,116.16,338.23Z"
    style="fill:#3a87ad"/>
    <path
    d="M207.11,410a13.21,13.21,0,0,1-.87,1.13c-1.7,1.82-3.44,3.61-5.11,5.46a1.69,1.69,0,0,1-2.18.46,202.17,202.17,0,0,1-32.84-16.5,197.23,197.23,0,0,1-30.81-23.43c-3.81-3.56-7.35-7.4-11-11.12-.24-.25-.46-.53-.82-.95,2.26.73,4.28,1.5,6.37,2,3.3.85,6.63,1.58,10,2.32a4.09,4.09,0,0,1,2,1,166.23,166.23,0,0,0,21.9,17.79,178,178,0,0,0,25.48,14.5,167.47,167.47,0,0,0,16.28,6.6C206,409.51,206.44,409.73,207.11,410Z"
    style="fill:#3a87ad"/>
  </svg>
