<svg xmlns="http://www.w3.org/2000/svg" viewBox="0 0 512 512">
  <title>assignment-13</title>
  <g style="isolation:isolate"><path d="M324.62,493.53a10.59,10.59,0,0,0,10.56,10.55H139.88l10.55-42.22H324.62v31.67Z" style="fill:#eee"/><polygon points="324.62 440.74 324.62 461.86 176.82 461.86 176.82 387.96 324.62 387.96 324.62 440.74" style="fill:#eee"/><polygon points="324.62 440.74 324.62 461.86 176.82 461.86 176.82 387.96 324.62 387.96 324.62 440.74" style="fill:#999;opacity:0.5;mix-blend-mode:multiply"/><rect x="176.82" y="387.96" width="147.79" height="36.95" style="fill:#eee"/><rect x="176.82" y="387.96" width="147.79" height="36.95" style="fill:gray;opacity:0.25;mix-blend-mode:multiply"/><path d="M44.87,277.11H324.62V388H18.47A10.59,10.59,0,0,1,7.92,377.4V277.11ZM256,308.78a21.12,21.12,0,1,0,21.11,21.12A21.18,21.18,0,0,0,256,308.78Z" style="fill:#eee"/><circle cx="256" cy="329.9" r="21.11" style="fill:#eee"/><circle cx="256" cy="329.9" r="21.11" style="fill:#999;opacity:0.75;mix-blend-mode:multiply"/><path d="M324.62,440.74H504.08v52.79a10.58,10.58,0,0,1-10.55,10.55H335.17a10.58,10.58,0,0,1-10.55-10.55V440.74Z" style="fill:#eee"/><path d="M324.62,440.74H504.08v52.79a10.58,10.58,0,0,1-10.55,10.55H335.17a10.58,10.58,0,0,1-10.55-10.55V440.74Z" style="fill:#999;opacity:0.75;mix-blend-mode:multiply"/><path d="M335.17,176.82H493.53a10.59,10.59,0,0,1,10.55,10.56v52.79H324.62V187.38A10.59,10.59,0,0,1,335.17,176.82Z" style="fill:#eee"/><path d="M335.17,176.82H493.53a10.59,10.59,0,0,1,10.55,10.56v52.79H324.62V187.38A10.59,10.59,0,0,1,335.17,176.82Z" style="fill:#999;opacity:0.75;mix-blend-mode:multiply"/><path d="M504.08,18.47V187.38a10.59,10.59,0,0,0-10.56-10.56H467.13V44.87H44.87V277.11H7.92V18.47A10.59,10.59,0,0,1,18.48,7.92H493.53A10.58,10.58,0,0,1,504.08,18.47Z" style="fill:#eee"/><path d="M504.08,18.47V187.38a10.59,10.59,0,0,0-10.56-10.56H467.13V44.87H44.87V277.11H7.92V18.47A10.59,10.59,0,0,1,18.48,7.92H493.53A10.58,10.58,0,0,1,504.08,18.47Z" style="fill:#999;opacity:0.5;mix-blend-mode:multiply"/><polygon points="504.08 240.16 504.08 440.74 324.62 440.74 324.62 387.96 324.62 277.11 324.62 240.16 504.08 240.16" style="fill:#efb73e"/><polygon points="504.08 240.16 504.08 440.74 324.62 440.74 324.62 387.96 324.62 277.11 324.62 240.16 504.08 240.16" style="fill:#fff;opacity:0.5;mix-blend-mode:soft-light"/><path d="M467.13,44.87v132h-132a10.59,10.59,0,0,0-10.55,10.56v89.73H44.87V44.87Z" style="fill:#efb73e"/><path d="M467.13,44.87v132h-132a10.59,10.59,0,0,0-10.55,10.56v89.73H44.87V44.87Z" style="fill:#fff;opacity:0.5;mix-blend-mode:soft-light"/><polygon points="44.87 44.87 44.87 277.11 171.55 277.11 403.79 44.87 44.87 44.87" style="fill:#efb73e"/><polygon points="504.08 240.16 324.62 240.16 324.62 277.11 324.62 387.96 324.62 440.74 356.29 440.74 504.08 292.95 504.08 240.16" style="fill:#efb73e"/><path d="M256,300.87a29,29,0,1,0,29,29A29.06,29.06,0,0,0,256,300.87Zm0,42.22a13.2,13.2,0,1,1,13.2-13.19A13.21,13.21,0,0,1,256,343.09Z" style="fill:#222"/><path
    d="M493.53,0H18.47A18.5,18.5,0,0,0,0,18.47V377.4a18.5,18.5,0,0,0,18.47,18.48H168.91v58.06H144.25L129.74,512H493.53A18.5,18.5,0,0,0,512,493.53V18.47A18.5,18.5,0,0,0,493.53,0ZM18.47,15.84H493.53a2.67,2.67,0,0,1,2.64,2.63V169.12c-.87-.13-21.12-.21-21.12-.21V37H37V269.2H15.84V18.47A2.66,2.66,0,0,1,18.47,15.84ZM332.54,248.08H496.17V432.82H332.54Zm-15.84-60.7V269.2H52.78V52.78H459.22V168.91h-124A18.5,18.5,0,0,0,316.7,187.38ZM15.84,377.4V285H316.7v95H18.47A2.67,2.67,0,0,1,15.84,377.4Zm168.9,18.48h132v58.06h-132Zm-28.12,73.89H316.7s.09,25.53.21,26.4H150Zm336.91,26.4H335.17a2.67,2.67,0,0,1-2.63-2.64V448.66H496.16v44.87A2.66,2.66,0,0,1,493.53,496.17Zm2.64-263.92H332.54V187.38a2.68,2.68,0,0,1,2.64-2.64H493.53a2.68,2.68,0,0,1,2.64,2.64Z"
    style="fill:#222"/><rect x="377.4" y="200.58" width="73.9" height="15.84" style="fill:#222"/><rect x="398.52" y="464.49" width="31.67" height="15.83" style="fill:#222"/><rect x="73.9" y="71.26" width="15.83" height="100.29" style="fill:#fff"/><rect x="73.9" y="187.38" width="15.83" height="21.11" style="fill:#fff"/><polygon points="369.49 324.62 353.65 324.62 353.65 269.2 393.24 269.2 393.24 285.03 369.49 285.03 369.49 324.62" style="fill:#fff"/><rect x="353.65" y="345.73" width="15.83" height="21.11" style="fill:#fff"/></g>
</svg>
