<svg xmlns="http://www.w3.org/2000/svg" viewBox="0 0 512 512"><title>assignment-04</title><g style="isolation:isolate"><polygon points="477.69 192.66 477.69 382.68 451.3 382.68 60.7 382.68 34.31 382.68 34.31 192.66 60.7 192.66 451.3 192.66 477.69 192.66" style="fill:#eee"/><polygon points="477.69 192.66 477.69 382.68 451.3 382.68 60.7 382.68 34.31 382.68 34.31 192.66 60.7 192.66 451.3 192.66 477.69 192.66" style="fill:#999;opacity:0.25;mix-blend-mode:multiply"/><polygon points="450.98 81.81 345.73 81.81 345.73 7.92 450.98 81.81" style="fill:#aea79f"/><polygon points="450.98 81.81 345.73 81.81 345.73 7.92 450.98 81.81" style="fill:#999;opacity:0.5;mix-blend-mode:multiply"/><rect x="60.7" y="382.68" width="390.6" height="121.4" style="fill:#aea79f"/><polygon points="451.3 82.03 451.3 192.66 60.7 192.66 60.7 7.92 345.73 7.92 345.73 81.81 450.98 81.81 451.3 82.03" style="fill:#aea79f"/><rect x="60.7" y="382.68" width="195.3" height="121.4" style="fill:#aea79f"/><rect x="60.7" y="382.68" width="195.3" height="121.4" style="fill:#999;opacity:0.5;mix-blend-mode:multiply"/><rect x="60.7" y="7.92" width="195.3" height="184.74" style="fill:#aea79f"/><rect x="60.7" y="7.92" width="195.3" height="184.74" style="fill:#999;opacity:0.5;mix-blend-mode:multiply"/><g style="opacity:0.25;mix-blend-mode:multiply"><rect x="60.7" y="382.68" width="195.3" height="121.4" style="fill:#aea79f"/><rect x="60.7" y="382.68" width="195.3" height="121.4" style="fill:#aea79f"/><rect x="60.7" y="382.68" width="195.3" height="121.4" style="fill:#aea79f"/><rect x="60.7" y="7.92" width="195.3" height="184.74" style="fill:#aea79f"/><rect x="60.7" y="7.92" width="195.3" height="184.74" style="fill:#aea79f"/><rect x="60.7" y="7.92" width="195.3" height="184.74" style="fill:#aea79f"/></g><polygon points="477.69 192.66 451.3 192.66 60.7 192.66 34.31 192.66 34.31 292.95 477.69 292.95 477.69 192.66" style="fill:#eee"/><path d="M485.61,184.74H459.22V77.79L348.23,0H52.78V184.74H26.39V390.6H52.78V512H459.22V390.6h26.39V184.74Zm-132-161.59L425.93,73.9H353.65Zm-285-7.31H337.81V89.73H443.38v95H68.62ZM443.38,496.17H68.62V390.6H443.38V496.17Zm26.39-121.41H42.23V200.58H469.77V374.76Z" style="fill:#222"/><rect x="435.46" y="216.41" width="21.11" height="15.84" style="fill:#222"/><rect x="435.46" y="343.09" width="21.11" height="15.83" style="fill:#222"/><rect x="55.42" y="343.09" width="21.11" height="15.83" style="fill:#222"/><rect x="55.42" y="216.41" width="21.11" height="15.84" style="fill:#222"/><path d="M181.25,252.07c6.18,10.59,14.73,26.68,21.95,41.12l7.08,14.16,7.08-14.16c7.22-14.44,15.77-30.53,21.95-41.12v88.38h15.84V238.85a12.28,12.28,0,0,0-12.54-12.54c-5.11,0-8.36,3.82-13.71,12.38-3,4.74-6.71,11.29-11.15,19.48-2.65,4.88-5.23,9.79-7.47,14.1-2.24-4.31-4.83-9.22-7.47-14.1-4.44-8.19-8.19-14.74-11.15-19.48-5.35-8.56-8.6-12.38-13.71-12.38a12.28,12.28,0,0,0-12.54,12.54v101.6h15.84V252.07Z" style="fill:#222"/><path d="M333.9,279.89H280.32a11.41,11.41,0,0,0-11.65,11.64v37.28a11.4,11.4,0,0,0,11.65,11.64h55.91a11.41,11.41,0,0,0,11.65-11.64V226.31h-14v53.58Zm0,46.59H282.65V293.86H333.9Z" style="fill:#222"/><polygon points="244.6 140.56 271.72 140.56 271.72 54.74 244.6 54.74 244.6 69.54 256.93 69.54 256.93 125.76 244.6 125.76 244.6 140.56" style="fill:#fff"/><polygon points="140.72 140.56 113.6 140.56 113.6 54.74 140.72 54.74 140.72 69.54 128.39 69.54 128.39 125.76 140.72 125.76 140.72 140.56" style="fill:#fff"/><rect x="155.16" y="105.54" width="65.93" height="15" style="fill:#fff"/><rect x="164.22" y="75.54" width="65.93" height="15" style="fill:#fff"/><polygon points="203.76 137.24 190.85 134.93 207.15 58.06 220.06 60.37 203.76 137.24" style="fill:#fff"/><polygon points="179.04 137.24 166.13 134.93 182.42 58.06 195.33 60.37 179.04 137.24" style="fill:#fff"/><rect x="113.48" y="432.83" width="285.03" height="15.83" style="fill:#fff"/></g></svg>