<svg xmlns="http://www.w3.org/2000/svg" viewBox="0 0 71.28 81.17"><defs><style>.a{fill:#2db893;}.b{fill:#fff;}</style></defs><title>hw-icon-kahn</title><path class="a" d="M2.3,18.2a3.91,3.91,0,0,0-2.3,4V59a4.18,4.18,0,0,0,2.3,4L33.42,80.6a4.93,4.93,0,0,0,4.6,0L69,63a4,4,0,0,0,2.3-4V22.19a4.07,4.07,0,0,0-2.3-4L38,.58a4.87,4.87,0,0,0-4.6,0Z"/><path class="b" d="M63,32.92c-14.72,0-26.68,12.42-26.68,27.75v.61H35.11v-.61c0-15.33-12-27.6-26.68-27.75a18.92,18.92,0,0,0-.15,2.91A27.85,27.85,0,0,0,25.91,61.89a29.89,29.89,0,0,0,9.81,1.84,26.68,26.68,0,0,0,10-1.84C56,58.06,63.16,47.79,63.16,35.83,63.16,34.76,63,33.84,63,32.92Z"/><circle class="b" cx="35.72" cy="25.87" r="8.74"/></svg>