<svg xmlns="http://www.w3.org/2000/svg" viewBox="0 0 512 512">
  <title>quiz-01</title>
  <g style="isolation:isolate"><polygon points="477.69 192.66 477.69 382.68 451.3 382.68 60.7 382.68 34.31 382.68 34.31 192.66 60.7 192.66 451.3 192.66 477.69 192.66" style="fill:#ff9800"/><polygon points="450.98 81.81 345.73 81.81 345.73 7.92 450.98 81.81" style="fill:#ff9800"/><polygon points="450.98 81.81 345.73 81.81 345.73 7.92 450.98 81.81" style="fill:#999;opacity:0.25;mix-blend-mode:multiply"/><rect x="60.7" y="382.68" width="390.6" height="121.4" style="fill:#ff9800"/><polygon points="451.3 82.03 451.3 192.66 60.7 192.66 60.7 7.92 345.73 7.92 345.73 81.81 450.98 81.81 451.3 82.03" style="fill:#ff9800"/><rect x="60.7" y="382.68" width="195.3" height="121.4" style="fill:#ff9800"/><rect x="60.7" y="7.92" width="195.3" height="184.74" style="fill:#ff9800"/>
    <g style="opacity:0.25;mix-blend-mode:multiply"><rect x="60.7" y="382.68" width="195.3" height="121.4" style="fill:#999"/><rect x="60.7" y="7.92" width="195.3" height="184.74" style="fill:#999"/></g><polygon points="477.69 192.66 451.3 192.66 60.7 192.66 34.31 192.66 34.31 292.95 477.69 292.95 477.69 192.66" style="fill:#ff9800"/><polygon points="477.69 192.66 451.3 192.66 60.7 192.66 34.31 192.66 34.31 292.95 477.69 292.95 477.69 192.66" style="fill:#999;opacity:0.25;mix-blend-mode:multiply"/><rect x="113.48" y="432.83" width="285.03" height="15.83" style="fill:#fff"/><rect x="435.46" y="216.41" width="21.11" height="15.84" style="fill:#fff"/><rect x="435.46" y="343.09" width="21.11" height="15.83" style="fill:#fff"/><rect x="55.42" y="343.09" width="21.11" height="15.83" style="fill:#fff"/><rect x="55.42" y="216.41" width="21.11" height="15.84" style="fill:#fff"/><path
      d="M485.61,184.74H459.22V77.79L348.23,0H52.78V184.74H26.39V390.6H52.78V512H459.22V390.6h26.39V184.74Zm-132-161.59L425.93,73.9H353.65Zm-285-7.31H337.81V89.73H443.38v95H68.62ZM443.38,496.17H68.62V390.6H443.38V496.17Zm26.39-121.41H42.23V200.58H469.77V374.76Z"
      style="fill:#222"/><path d="M407.45,240l.05-14H328.16v14h61.29l-61.29,87v14h79.29l.05-14H345.58Z" style="fill:#222"/><path d="M311.48,340V226.07l-14-.07V340Z" style="fill:#222"/><path d="M267.73,226.31V326.48H216.48V226.07l-14-.07V328.81a11.4,11.4,0,0,0,11.65,11.64h55.91a11.4,11.4,0,0,0,11.64-11.64V226.31Z" style="fill:#222"/><path
      d="M190.82,341.44l-7.12-7.11V238a11.4,11.4,0,0,0-11.64-11.65H116.15A11.41,11.41,0,0,0,104.5,238v90.27a11.41,11.41,0,0,0,11.65,11.65h53.33l.25.24v.33h.33l10.87,10.88ZM118.48,325.9V240.29h51.25v80.06l-15.66-15.66-9.91,9.87,11.35,11.34Z"
      style="fill:#222"/><polygon points="244.6 140.56 271.72 140.56 271.72 54.74 244.6 54.74 244.6 69.54 256.93 69.54 256.93 125.76 244.6 125.76 244.6 140.56" style="fill:#fff"/><polygon points="140.72 140.56 113.6 140.56 113.6 54.74 140.72 54.74 140.72 69.54 128.39 69.54 128.39 125.76 140.72 125.76 140.72 140.56" style="fill:#fff"/><rect x="155.16" y="105.54" width="65.93" height="15" style="fill:#fff"/><rect x="164.22" y="75.54" width="65.93" height="15" style="fill:#fff"/><polygon points="203.76 137.24 190.85 134.93 207.15 58.06 220.06 60.37 203.76 137.24" style="fill:#fff"/><polygon points="179.04 137.24 166.13 134.93 182.42 58.06 195.33 60.37 179.04 137.24" style="fill:#fff"/></g>
</svg>
