<svg xmlns="http://www.w3.org/2000/svg" viewBox="0 0 512 512"><title>assignment-06</title><g style="isolation:isolate"><rect x="282.39" y="387.96" width="221.69" height="116.12" style="fill:#e95420"/><rect x="282.39" y="387.96" width="221.69" height="116.12" style="fill:#999;opacity:0.25;mix-blend-mode:multiply"/><rect x="282.39" y="387.96" width="221.69" height="68.62" style="fill:#e95420"/><rect x="7.92" y="197.94" width="496.17" height="137.24" style="fill:#eee"/><rect x="7.92" y="197.94" width="496.17" height="137.24" style="fill:#999;opacity:0.25;mix-blend-mode:multiply"/><rect x="7.92" y="7.92" width="496.17" height="137.24" style="fill:#eee"/><rect x="7.92" y="7.92" width="496.17" height="137.24" style="fill:#999;opacity:0.25;mix-blend-mode:multiply"/><rect x="7.92" y="197.94" width="496.17" height="84.45" style="fill:#eee"/><rect x="7.92" y="7.92" width="496.17" height="84.45" style="fill:#eee"/><polygon points="424.78 408.34 414.48 420.36 435.18 438.1 314.06 438.1 314.06 453.94 435.18 453.94 414.48 471.68 424.78 483.7 468.74 446.02 424.78 408.34" style="fill:#fff"/><path d="M0,0V153.07H512V0ZM496.17,137.24H15.84V15.84H496.16v121.4Z" style="fill:#222"/><path d="M0,343.09H512V190H0ZM15.84,205.86H496.16v121.4H15.84Z" style="fill:#222"/><path d="M274.47,512H512V380H274.47Zm15.84-116.12H496.16V496.17H290.31Z" style="fill:#222"/><polygon points="51.62 100.81 62.82 112.01 79.17 95.65 79.17 118.76 95.01 118.76 95.01 84.45 129.32 84.45 129.32 68.62 106.21 68.62 122.57 52.26 111.37 41.06 95.01 57.42 95.01 34.31 79.17 34.31 79.17 68.62 44.87 68.62 44.87 84.45 67.98 84.45 51.62 100.81" style="fill:#222"/><polygon points="157.19 100.81 168.38 112.01 184.74 95.65 184.74 118.76 200.58 118.76 200.58 84.45 234.89 84.45 234.89 68.62 211.78 68.62 228.13 52.26 216.94 41.06 200.58 57.42 200.58 34.31 184.74 34.31 184.74 68.62 150.43 68.62 150.43 84.45 173.54 84.45 157.19 100.81" style="fill:#222"/><polygon points="262.75 100.81 273.95 112.01 290.31 95.65 290.31 118.76 306.14 118.76 306.14 84.45 340.45 84.45 340.45 68.62 317.34 68.62 333.7 52.26 322.5 41.06 306.14 57.42 306.14 34.31 290.31 34.31 290.31 68.62 256 68.62 256 84.45 279.11 84.45 262.75 100.81" style="fill:#222"/><polygon points="122.57 242.28 111.37 231.08 95.01 247.44 95.01 224.33 79.17 224.33 79.17 258.64 44.87 258.64 44.87 274.47 67.98 274.47 51.62 290.83 62.82 302.03 79.17 285.67 79.17 308.78 95.01 308.78 95.01 274.47 129.32 274.47 129.32 258.64 106.21 258.64 122.57 242.28" style="fill:#222"/><polygon points="228.13 242.28 216.94 231.08 200.58 247.44 200.58 224.33 184.74 224.33 184.74 258.64 150.43 258.64 150.43 274.47 173.54 274.47 157.19 290.83 168.38 302.03 184.74 285.67 184.74 308.78 200.58 308.78 200.58 274.47 234.89 274.47 234.89 258.64 211.78 258.64 228.13 242.28" style="fill:#222"/><polygon points="333.7 242.28 322.5 231.08 306.14 247.44 306.14 224.33 290.31 224.33 290.31 258.64 256 258.64 256 274.47 279.11 274.47 262.75 290.83 273.95 302.03 290.31 285.67 290.31 308.78 306.14 308.78 306.14 274.47 340.45 274.47 340.45 258.64 317.34 258.64 333.7 242.28" style="fill:#222"/><polygon points="439.27 242.28 428.07 231.08 411.71 247.44 411.71 224.33 395.88 224.33 395.88 258.64 361.57 258.64 361.57 274.47 384.68 274.47 368.32 290.83 379.52 302.03 395.88 285.67 395.88 308.78 411.71 308.78 411.71 274.47 446.02 274.47 446.02 258.64 422.91 258.64 439.27 242.28" style="fill:#222"/></g></svg>