<?xml version="1.0" encoding="utf-8"?>
<!-- Generator: Adobe Illustrator 22.0.1, SVG Export Plug-In . SVG Version: 6.00 Build 0)  -->
<svg version="1.1" id="Layer_1" xmlns="http://www.w3.org/2000/svg" xmlns:xlink="http://www.w3.org/1999/xlink" x="0px" y="0px"
	 viewBox="0 0 510 500" style="enable-background:new 0 0 510 500;" xml:space="preserve">
<style type="text/css">
	.st0{fill-rule:evenodd;clip-rule:evenodd;fill:#181616;}
	.st1{fill:#181616;}
</style>
<g>
	<path class="st0" d="M255,6.2C116.9,6.2,5,118.1,5,256.2c0,110.5,71.6,204.2,171,237.2c12.5,2.3,17.1-5.4,17.1-12
		c0-6-0.2-25.7-0.3-46.5c-69.5,15.1-84.2-29.5-84.2-29.5c-11.4-28.9-27.8-36.6-27.8-36.6c-22.7-15.5,1.7-15.2,1.7-15.2
		c25.1,1.8,38.3,25.8,38.3,25.8c22.3,38.2,58.5,27.2,72.8,20.8c2.2-16.2,8.7-27.2,15.9-33.4c-55.5-6.3-113.9-27.8-113.9-123.6
		c0-27.3,9.8-49.6,25.8-67.1c-2.6-6.3-11.2-31.7,2.4-66.2c0,0,21-6.7,68.8,25.6c19.9-5.5,41.3-8.3,62.6-8.4
		c21.2,0.1,42.6,2.9,62.6,8.4c47.7-32.3,68.7-25.6,68.7-25.6c13.6,34.4,5,59.9,2.5,66.2c16,17.5,25.7,39.8,25.7,67.1
		c0,96-58.5,117.2-114.2,123.4c9,7.8,17,23,17,46.3c0,33.5-0.3,60.4-0.3,68.6c0,6.7,4.5,14.4,17.2,12
		C433.5,460.3,505,366.6,505,256.2C505,118.1,393.1,6.2,255,6.2z"/>
	<path class="st1" d="M99.7,365.1c-0.5,1.2-2.5,1.6-4.3,0.8c-1.8-0.8-2.8-2.5-2.2-3.8c0.5-1.3,2.5-1.6,4.3-0.8
		C99.3,362.2,100.3,363.9,99.7,365.1L99.7,365.1z M96.6,362.8"/>
	<path class="st1" d="M109.8,376.4c-1.2,1.1-3.5,0.6-5.1-1.2c-1.6-1.7-1.9-4.1-0.7-5.2c1.2-1.1,3.5-0.6,5.1,1.2
		C110.7,373,111.1,375.3,109.8,376.4L109.8,376.4z M107.4,373.9"/>
	<path class="st1" d="M119.7,390.8c-1.5,1.1-4,0.1-5.6-2.2c-1.5-2.2-1.5-4.9,0-6c1.5-1.1,4-0.1,5.6,2.1
		C121.2,387.1,121.2,389.7,119.7,390.8L119.7,390.8z M119.7,390.8"/>
	<path class="st1" d="M133.2,404.7c-1.4,1.5-4.3,1.1-6.4-1c-2.2-2-2.8-4.9-1.4-6.4c1.4-1.5,4.3-1.1,6.5,1
		C134,400.3,134.6,403.2,133.2,404.7L133.2,404.7z M133.2,404.7"/>
	<path class="st1" d="M151.8,412.8c-0.6,2-3.4,2.8-6.2,2c-2.8-0.9-4.7-3.1-4.1-5.1c0.6-2,3.4-2.9,6.3-2
		C150.5,408.5,152.4,410.8,151.8,412.8L151.8,412.8z M151.8,412.8"/>
	<path class="st1" d="M172.3,414.3c0.1,2.1-2.3,3.8-5.3,3.8c-3,0.1-5.4-1.6-5.4-3.6c0-2.1,2.3-3.8,5.3-3.8
		C169.8,410.6,172.3,412.2,172.3,414.3L172.3,414.3z M172.3,414.3"/>
	<path class="st1" d="M191.3,411.1c0.4,2-1.7,4.1-4.7,4.6c-2.9,0.5-5.6-0.7-6-2.7c-0.4-2.1,1.7-4.1,4.6-4.7
		C188.3,407.8,190.9,409,191.3,411.1L191.3,411.1z M191.3,411.1"/>
</g>
</svg>
