<svg xmlns="http://www.w3.org/2000/svg" viewBox="0 0 512 512"><title>assignment-08</title><g style="isolation:isolate"><polygon points="477.69 192.66 477.69 382.68 451.3 382.68 60.7 382.68 34.31 382.68 34.31 192.66 60.7 192.66 451.3 192.66 477.69 192.66" style="fill:#eee"/><polygon points="477.69 192.66 477.69 382.68 451.3 382.68 60.7 382.68 34.31 382.68 34.31 192.66 60.7 192.66 451.3 192.66 477.69 192.66" style="fill:#999;opacity:0.25;mix-blend-mode:multiply"/><polygon points="450.98 81.81 345.73 81.81 345.73 7.92 450.98 81.81" style="fill:#e95420"/><polygon points="450.98 81.81 345.73 81.81 345.73 7.92 450.98 81.81" style="fill:#999;opacity:0.5;mix-blend-mode:multiply"/><rect x="60.7" y="382.68" width="390.6" height="121.4" style="fill:#e95420"/><polygon points="451.3 82.03 451.3 192.66 60.7 192.66 60.7 7.92 345.73 7.92 345.73 81.81 450.98 81.81 451.3 82.03" style="fill:#e95420"/><rect x="60.7" y="382.68" width="195.3" height="121.4" style="fill:#e95420"/><rect x="60.7" y="382.68" width="195.3" height="121.4" style="fill:#999;opacity:0.25;mix-blend-mode:multiply"/><rect x="60.7" y="7.92" width="195.3" height="184.74" style="fill:#e95420"/><rect x="60.7" y="7.92" width="195.3" height="184.74" style="fill:#999;opacity:0.25;mix-blend-mode:multiply"/><polygon points="477.69 192.66 451.3 192.66 60.7 192.66 34.31 192.66 34.31 292.95 477.69 292.95 477.69 192.66" style="fill:#eee"/><path d="M485.61,184.74H459.22V77.79L348.23,0H52.78V184.74H26.39V390.6H52.78V512H459.22V390.6h26.39V184.74Zm-132-161.59L425.93,73.9H353.65Zm-285-7.31H337.81V89.73H443.38v95H68.62ZM443.38,496.17H68.62V390.6H443.38V496.17Zm26.39-121.41H42.23V200.58H469.77V374.76Z" style="fill:#222"/><rect x="435.46" y="216.41" width="21.11" height="15.84" style="fill:#222"/><rect x="435.46" y="343.09" width="21.11" height="15.83" style="fill:#222"/><rect x="55.42" y="343.09" width="21.11" height="15.83" style="fill:#222"/><rect x="55.42" y="216.41" width="21.11" height="15.84" style="fill:#222"/><polygon points="116.12 292.95 155.71 292.95 155.71 340.45 171.55 340.45 171.55 229.61 155.71 229.61 155.71 277.11 116.12 277.11 116.12 229.61 100.29 229.61 100.29 340.45 116.12 340.45 116.12 292.95" style="fill:#222"/><polygon points="206.51 340.45 222.35 340.45 222.35 246.76 246.76 246.76 246.76 230.93 182.1 230.93 182.1 246.76 206.51 246.76 206.51 340.45" style="fill:#222"/><path d="M273.15,252.07c6.18,10.59,14.73,26.68,22,41.12l7.08,14.16,7.09-14.16c7.22-14.44,15.77-30.53,21.94-41.12v88.38h15.84V238.85a12.28,12.28,0,0,0-12.54-12.54c-5.11,0-8.36,3.82-13.71,12.38-3,4.74-6.71,11.29-11.15,19.48-2.64,4.88-5.23,9.79-7.47,14.1-2.24-4.31-4.82-9.22-7.47-14.1-4.43-8.19-8.18-14.74-11.14-19.48-5.35-8.56-8.6-12.38-13.72-12.38-8.14,0-12.53,6.46-12.53,12.54v101.6h15.83V252.07Z" style="fill:#222"/><polygon points="417.65 323.3 374.76 323.3 374.76 229.61 358.93 229.61 358.93 339.13 417.65 339.13 417.65 323.3" style="fill:#222"/><rect x="113.48" y="432.83" width="285.03" height="15.83" style="fill:#fff"/><polygon points="145.22 140.56 96.18 97.65 145.22 54.74 155.65 66.66 120.23 97.65 155.65 128.64 145.22 140.56" style="fill:#fff"/><rect x="133.05" y="92.37" width="113.95" height="15.83" transform="translate(48.46 261.92) rotate(-76.61)" style="fill:#fff"/><polygon points="240.1 140.56 229.67 128.64 265.09 97.65 229.67 66.66 240.1 54.74 289.14 97.65 240.1 140.56" style="fill:#fff"/></g></svg>