<svg xmlns="http://www.w3.org/2000/svg" viewBox="0 0 46.59 56.81"><defs><style>.a{fill:none;}.b{fill:#3a87ad;}.c{fill:#fff;}</style></defs><title>hw-icon-mdn</title><path class="a" d="M4.32,50.73a3.09,3.09,0,0,0,0,.43A3.09,3.09,0,0,1,4.32,50.73Z"/><path class="b" d="M46.59,47.32V2.18A2.19,2.19,0,0,0,44.41,0H2.18A2.19,2.19,0,0,0,0,2.18V50.92c0,3.25.74,5.89,4,5.89H40.7A5.88,5.88,0,0,0,46,53.58H6.73a2.41,2.41,0,0,1-2.45-2.39,2,2,0,0,1,0-.49,2.45,2.45,0,0,1,2.41-2h38.9l-.07-.05A1.37,1.37,0,0,0,46.59,47.32Z"/><path class="c" d="M39,24.43c-.16.3-.33.58-.48.88a1.14,1.14,0,0,1-1.16.67.78.78,0,0,0-.49.16c-.45.3-.9.58-1.37.86a2.41,2.41,0,0,1-2.08.11,9.6,9.6,0,0,0-3.48-.62,3.8,3.8,0,0,0-3.1,1.43,4.6,4.6,0,0,0-.7,1.4c-.41,1-.76,7-.75,8.52a23.65,23.65,0,0,1-11.17-6.66l1.41-3.7H11.22l3.19-3.38H8.92l3.19-3.38H6.9l5.81-6.15a13.4,13.4,0,0,1,6.46-3.65,7.27,7.27,0,0,1,4.35.25l.8.24h.09l1.21.36a4.23,4.23,0,0,0,2,0,3.73,3.73,0,0,1,2.7.34,2.69,2.69,0,0,1,1.34,2,2.4,2.4,0,0,0,1.18,1.8,19.19,19.19,0,0,0,3,1.34c.74.28,1.48.58,2.22.88a2.26,2.26,0,0,1,.94.67,1.56,1.56,0,0,1,.36.9c0,.66.12,1.32.16,2A5,5,0,0,1,39,24.43Z"/></svg>