<svg xmlns="http://www.w3.org/2000/svg" viewBox="0 0 512 512"><title>assignment-02</title><g style="isolation:isolate"><rect x="198.19" y="46.8" width="236.73" height="154.15" style="fill:#eee"/><path d="M473.46,19.27V492.73a11,11,0,0,1-11,11H159.65V8.26h302.8A11,11,0,0,1,473.46,19.27ZM434.92,201V46.8H198.19V201Z" style="fill:#aea79f"/><g style="opacity:0.5;mix-blend-mode:soft-light"><path d="M473.46,19.27V492.73a11,11,0,0,1-11,11H159.65V8.26h302.8A11,11,0,0,1,473.46,19.27ZM434.92,201V46.8H198.19V201Z" style="fill:#fff"/></g><polygon points="121.12 377.12 121.12 421.16 77.07 421.16 38.54 421.16 38.54 377.12 77.07 377.12 121.12 377.12" style="fill:#333"/><polygon points="121.12 233.98 121.12 278.02 77.07 278.02 38.54 278.02 38.54 233.98 77.07 233.98 121.12 233.98" style="fill:#333"/><polygon points="121.12 90.84 121.12 134.88 77.07 134.88 38.54 134.88 38.54 90.84 77.07 90.84 121.12 90.84" style="fill:#333"/><path d="M159.65,8.26V503.74H88.08a11,11,0,0,1-11-11V421.16h44.05v-44H77.07V278h44.05V234H77.07v-99.1h44.05v-44H77.07V19.27a11,11,0,0,1,11-11Z" style="fill:#aea79f"/><path d="M159.65,8.26V503.74H88.08a11,11,0,0,1-11-11V421.16h44.05v-44H77.07V278h44.05V234H77.07v-99.1h44.05v-44H77.07V19.27a11,11,0,0,1,11-11Z" style="fill:#999;opacity:0.25;mix-blend-mode:multiply"/><polygon points="198.19 200.95 198.19 46.8 319.31 46.8 319.31 8.26 159.66 8.26 159.66 503.74 319.31 503.74 319.31 200.95 198.19 200.95" style="fill:#aea79f"/><rect x="198.19" y="46.8" width="121.12" height="154.15" style="fill:#eee"/><rect x="198.19" y="46.8" width="121.12" height="154.15" style="fill:#999;opacity:0.25;mix-blend-mode:multiply"/><path d="M462.45,0H88.08A19.28,19.28,0,0,0,68.82,19.27V82.58H30.28v60.56H68.82v82.58H30.28v60.56H68.82v82.58H30.28v60.56H68.82v63.31A19.29,19.29,0,0,0,88.09,512H462.45a19.29,19.29,0,0,0,19.27-19.27V19.27A19.29,19.29,0,0,0,462.45,0ZM46.79,99.1h66.07v27.52H46.79Zm0,143.14h66.07v27.52H46.79Zm0,143.14h66.07V412.9H46.79ZM85.33,492.73V429.42h44V368.86h-44V286.28h44V225.72h-44V143.14h44V82.58h-44V19.27a2.79,2.79,0,0,1,2.75-2.75H151.4v479H88.08A2.79,2.79,0,0,1,85.33,492.73Zm379.87,0a2.79,2.79,0,0,1-2.75,2.75H167.91v-479H462.45a2.79,2.79,0,0,1,2.75,2.75V492.73Z" style="fill:#222"/><path d="M189.93,209.2H443.18V38.54H189.93ZM206.45,55.05H426.67V192.69H206.45Z" style="fill:#222"/><rect x="418.41" y="231.23" width="27.53" height="16.52" style="fill:#fff"/><rect x="374.36" y="231.23" width="27.53" height="16.52" style="fill:#fff"/><rect x="187.18" y="231.23" width="27.53" height="16.52" style="fill:#fff"/><rect x="187.18" y="451.44" width="258.75" height="16.52" style="fill:#fff"/><polygon points="244.99 134.88 228.47 134.88 228.47 77.08 286.28 77.08 286.28 93.59 244.99 93.59 244.99 134.88" style="fill:#fff"/><rect x="228.47" y="145.89" width="16.52" height="22.02" style="fill:#fff"/></g></svg>