<?xml version="1.0" encoding="utf-8"?>
<!-- Generator: Adobe Illustrator 22.1.0, SVG Export Plug-In . SVG Version: 6.00 Build 0)  -->
<svg version="1.1" id="Capa_1" xmlns="http://www.w3.org/2000/svg" xmlns:xlink="http://www.w3.org/1999/xlink" x="0px" y="0px"
	 viewBox="0 0 571.5 571.5" style="enable-background:new 0 0 571.5 571.5;" xml:space="preserve">
<style type="text/css">
	.st0{display:none;fill:#772953;}
	.st1{fill:#772953;}
	.st2{display:none;}
	.st3{display:inline;fill:#27A2DB;}
</style>
<g>
	<path class="st0" d="M493,137c0-2.6-0.9-5.2-2.7-7.3L380.1,3.8c0,0-0.1,0-0.1-0.1c-0.7-0.7-1.4-1.3-2.2-1.9
		c-0.2-0.2-0.5-0.3-0.7-0.4c-0.7-0.4-1.4-0.7-2.2-0.9c-0.2-0.1-0.4-0.2-0.6-0.2c-0.8-0.2-1.7-0.3-2.6-0.3H100.9
		C88.5,0,78.4,10.1,78.4,22.4v526.7c0,12.4,10.1,22.4,22.4,22.4h369.8c12.4,0,22.4-10.1,22.4-22.4V138.2
		C493.1,137.8,493,137.4,493,137z M213.2,520h-24.5l-8.5-43.1c-1.9-10.1-3.6-19.5-4.8-30.9h-0.3c-1.8,11.3-3.4,20.8-5.8,30.9
		l-9.5,43.1h-24.8l-23.7-100.1h24.2l7.6,41.3c2.2,11.9,4.3,24.8,5.9,34.9h0.3c1.6-10.8,4-22.9,6.5-35.2l8.5-41h24.1l8,42.2
		c2.2,11.7,3.9,22.4,5.3,33.6h0.3c1.5-11.1,3.7-22.9,5.8-34.8l8.2-41h23L213.2,520z M336.9,520l-1.5-38.3c-0.4-12-0.9-26.6-0.9-41.1
		h-0.4c-3.1,12.8-7.3,27-11.1,38.8l-12.2,39.1h-17.7l-10.7-38.8c-3.3-11.7-6.7-26-9-39.1h-0.3c-0.6,13.5-1,29-1.8,41.4l-1.8,38
		h-20.9l6.4-100.1h30.1l9.8,33.4c3.1,11.6,6.2,24.1,8.5,35.8h0.4c2.8-11.6,6.2-24.8,9.5-35.9l10.7-33.3h29.6l5.5,100.1H336.9z
		 M426.5,520h-26.4L368,419.9h24.8l12.2,42.3c3.4,11.9,6.5,23.3,8.9,35.8h0.5c2.5-12,5.6-23.9,9.1-35.4l12.8-42.8h24.1L426.5,520z
		 M100.9,380.6V22.4h259.6v114.7c0,6.2,5,11.2,11.2,11.2h99v232.3L100.9,380.6L100.9,380.6z"/>
	<g>
		<path class="st1" d="M337.8,452c0-5.9-4.5-9.1-12.6-9.1c-3.8,0-6.1,0.2-7.6,0.5v18.3h5.8C332.8,461.6,337.8,457.8,337.8,452z"/>
		<path class="st1" d="M323.7,474.3h-6.1v22.2c1.8,0.2,3.8,0.2,6.9,0.2c8,0,15.2-3,15.2-11.3C339.6,477.5,332.5,474.3,323.7,474.3z"
			/>
		<path class="st1" d="M493,137c0-2.6-0.9-5.2-2.7-7.3L380.1,3.8c0,0-0.1,0-0.1-0.1c-0.7-0.7-1.4-1.3-2.2-1.9
			c-0.2-0.2-0.5-0.3-0.7-0.4c-0.7-0.4-1.4-0.7-2.2-0.9c-0.2-0.1-0.4-0.1-0.6-0.2c-0.8-0.2-1.7-0.3-2.6-0.3H100.9
			C88.5,0,78.4,10.1,78.4,22.4v526.7c0,12.4,10.1,22.4,22.4,22.4h369.8c12.4,0,22.4-10.1,22.4-22.4V138.2
			C493.1,137.8,493,137.4,493,137z M195.3,509.9h-19.6l-6.8-34.4c-1.5-8.1-2.8-15.6-3.8-24.7h-0.2c-1.4,9-2.7,16.6-4.6,24.7
			l-7.6,34.4h-19.8l-19-80h19.3l6.1,33c1.8,9.5,3.4,19.8,4.8,27.9h0.2c1.3-8.7,3.2-18.3,5.2-28.1l6.8-32.8h19.2l6.4,33.7
			c1.8,9.4,3.1,17.9,4.3,26.8h0.2c1.2-8.9,3-18.3,4.6-27.8l6.5-32.8h18.4L195.3,509.9z M282.6,509.9L282.6,509.9h-51v-80H281v14.8
			h-31.2v16.6h29.4v14.7h-29.4v19h32.9V509.9z M350.1,502.8c-5.7,4.5-15.3,7.1-30.9,7.1c-8.7,0-15.3-0.6-19.2-1.2v-77.2
			c4.7-0.9,14.1-1.6,23-1.6c10.8,0,17.5,1.1,23.2,4.4c5.5,2.9,9.4,8.3,9.4,15.4c0,7-4.1,13.5-12.9,16.8v0.2
			c9,2.5,15.6,9.2,15.6,19.4C358.3,493.2,355,498.8,350.1,502.8z M441.6,509.9l-1.2-30.6c-0.4-9.6-0.7-21.3-0.7-32.9h-0.4
			c-2.5,10.2-5.8,21.6-8.9,31l-9.7,31.2h-14.1l-8.5-31c-2.6-9.4-5.3-20.8-7.2-31.2h-0.2c-0.5,10.8-0.8,23.2-1.4,33.1l-1.4,30.4
			h-16.7l5.1-80h24.1l7.8,26.7c2.5,9.3,5,19.2,6.8,28.6h0.4c2.3-9.3,5-19.8,7.6-28.7l8.5-26.6h23.6l4.4,80H441.6z M470.7,380.6
			H100.9v0V22.4h259.6v114.7c0,6.2,5,11.2,11.2,11.2h99V380.6z"/>
	</g>
	<path class="st1" d="M280.2,123.5c-58.4,0-105.9,47.5-105.9,105.9c0,58.4,47.5,105.9,105.9,105.9c58.4,0,105.9-47.5,105.9-105.9
		C386.1,171,338.6,123.5,280.2,123.5z M280.2,316c-47.7,0-86.6-38.9-86.6-86.6c0-47.8,38.9-86.6,86.6-86.6
		c47.8,0,86.6,38.9,86.6,86.6C366.8,277.1,327.9,316,280.2,316z"/>
	<path class="st1" d="M248.5,166.3c-1,0.5-1.7,1.5-1.7,2.6v124.3c0,1.1,0.6,2.2,1.7,2.6l1.3,0.3c0.7,0,1.3-0.2,1.8-0.6l97.4-62.2
		c0.7-0.6,1.1-1.4,1.1-2.3c0-0.9-0.4-1.7-1.1-2.3l-97.4-62.1C250.7,165.9,249.5,165.8,248.5,166.3z"/>
</g>
<g id="webm_shapes_1_" class="st2">
	<path id="m_1_" class="st3" d="M441.6,509.9l-1.2-30.6c-0.4-9.6-0.7-21.3-0.7-32.9h-0.4c-2.5,10.2-5.8,21.6-8.9,31l-9.7,31.2h-14.1
		l-8.5-31c-2.6-9.4-5.3-20.8-7.2-31.2h-0.2c-0.5,10.8-0.8,23.2-1.4,33.1l-1.4,30.4h-16.7l5.1-80h24.1l7.8,26.7
		c2.5,9.3,5,19.2,6.8,28.6h0.4c2.3-9.3,5-19.8,7.6-28.7l8.5-26.6h23.6l4.4,80H441.6z"/>
	<path id="b_1_" class="st3" d="M342.7,466.8v-0.2c8.9-3.3,12.9-9.8,12.9-16.8c0-7.1-4-12.5-9.4-15.4c-5.7-3.4-12.4-4.4-23.2-4.4
		c-8.9,0-18.3,0.7-23,1.6v77.2c4,0.6,10.5,1.2,19.2,1.2c15.6,0,25.2-2.6,30.9-7.1c4.9-4,8.2-9.6,8.2-16.7
		C358.3,476,351.7,469.2,342.7,466.8z M317.6,443.3c1.5-0.2,3.7-0.5,7.6-0.5c8,0,12.6,3.1,12.6,9.1c0,5.8-5,9.7-14.3,9.7h-5.8V443.3
		z M324.5,496.7c-3,0-5.1,0-6.9-0.2v-22.2h6.1c8.9,0,16,3.1,16,11.1C339.6,493.7,332.5,496.7,324.5,496.7z"/>
	<polygon id="e_1_" class="st3" points="282.6,509.9 231.6,509.9 231.6,429.9 281,429.9 281,444.7 249.8,444.7 249.8,461.4 
		279.2,461.4 279.2,476.1 249.8,476.1 249.8,495.1 282.6,495.1 282.6,509.9 	"/>
	<path id="w_1_" class="st3" d="M195.3,509.9h-19.6l-6.8-34.4c-1.5-8.1-2.8-15.6-3.8-24.7h-0.2c-1.4,9-2.7,16.6-4.6,24.7l-7.6,34.4
		h-19.8l-19-80h19.3l6.1,33c1.8,9.5,3.4,19.8,4.8,27.9h0.2c1.3-8.7,3.2-18.3,5.2-28.1l6.8-32.8h19.2l6.4,33.7
		c1.8,9.4,3.1,17.9,4.3,26.8h0.2c1.2-8.9,3-18.3,4.6-27.8l6.5-32.8h18.4L195.3,509.9z"/>
</g>
</svg>
