<?xml version="1.0" encoding="utf-8"?>
<!-- Generator: Adobe Illustrator 22.1.0, SVG Export Plug-In . SVG Version: 6.00 Build 0)  -->
<svg version="1.1" id="Capa_1" xmlns="http://www.w3.org/2000/svg" xmlns:xlink="http://www.w3.org/1999/xlink" x="0px" y="0px"
	 viewBox="0 0 512 512" style="enable-background:new 0 0 512 512;" xml:space="preserve">
<style type="text/css">
	.st0{display:none;}
	.st1{display:inline;fill:#772953;}
	.st2{fill:#772953;}
	.st3{display:none;fill:#772953;}
	.st4{fill:#772953;stroke:#772953;stroke-width:5;stroke-miterlimit:10;}
</style>
<g>
	<g class="st0">
		<path class="st1" d="M441.6,121.7c0-2.4-0.8-4.7-2.4-6.5L340.5,2.4c0,0,0,0-0.1-0.1c-0.6-0.7-1.3-1.2-2-1.7
			c-0.2-0.1-0.4-0.3-0.7-0.4c-0.6-0.3-1.3-0.6-2-0.8c-0.2-0.1-0.4-0.1-0.5-0.2C334.5-0.9,333.8-1,333-1H90.4
			C79.3-1,70.3,8,70.3,19.1v471.8c0,11.1,9,20.1,20.1,20.1h331.3c11.1,0,20.1-9,20.1-20.1V122.8
			C441.7,122.4,441.7,122.1,441.6,121.7z M190.3,477.9l-8.4-28h-31.3l-7.8,28h-25.6l33.4-109.2H183l33.9,109.2H190.3z M258.1,479.5
			c-12.5,0-24.8-3.2-30.9-6.6l5-20.4c6.6,3.4,16.8,6.8,27.4,6.8c11.3,0,17.3-4.7,17.3-11.8c0-6.8-5.2-10.7-18.3-15.4
			c-18.1-6.3-30-16.4-30-32.2c0-18.6,15.6-32.9,41.3-32.9c12.3,0,21.4,2.6,27.9,5.5l-5.5,19.9c-4.4-2.1-12.1-5.2-22.8-5.2
			c-10.7,0-15.9,4.9-15.9,10.5c0,7,6.2,10,20.3,15.4c19.3,7.1,28.3,17.2,28.3,32.6C302.2,463.9,288.1,479.5,258.1,479.5z
			 M387.2,427.8c-8.4,7.9-20.9,11.5-35.5,11.5c-3.2,0-6.2-0.2-8.4-0.5v39h-24.5V370.1c7.6-1.3,18.3-2.3,33.4-2.3
			c15.2,0,26.1,2.9,33.4,8.7c7,5.5,11.7,14.6,11.7,25.3C397.3,412.6,393.7,421.7,387.2,427.8z M90.4,339.9V19.1h232.6v102.7
			c0,5.5,4.5,10,10,10h88.7l0,208.1H90.4z"/>
		<path class="st1" d="M166,387.2h-0.3c-1.6,6.5-3.2,14.7-5,21.1l-6.5,23.2h24.1l-6.8-23.2C169.6,401.7,167.6,393.6,166,387.2z"/>
		<path class="st1" d="M353.5,386.5c-5,0-8.4,0.5-10.2,1v32.2c2.1,0.5,4.7,0.7,8.3,0.7c13.1,0,21.2-6.6,21.2-17.8
			C372.8,392.5,365.9,386.5,353.5,386.5z"/>
	</g>
	<g>
		<path class="st2" d="M441.6,121.7c0-2.4-0.8-4.7-2.4-6.5L340.5,2.4c0,0,0,0-0.1-0.1c-0.6-0.7-1.3-1.2-2-1.7
			c-0.2-0.1-0.4-0.3-0.7-0.4c-0.6-0.3-1.3-0.6-2-0.8c-0.2-0.1-0.4-0.1-0.5-0.2C334.5-0.9,333.8-1,333-1H90.4
			C79.3-1,70.3,8,70.3,19.1v471.8c0,11.1,9,20.1,20.1,20.1h331.3c11.1,0,20.1-9,20.1-20.1V122.8
			C441.7,122.4,441.7,122.1,441.6,121.7z M186,427.3c-8.4,7.9-20.9,11.5-35.5,11.5c-3.2,0-6.2-0.2-8.4-0.5v39h-24.5V369.6
			c7.6-1.3,18.3-2.3,33.4-2.3c15.2,0,26.1,2.9,33.4,8.7c7,5.5,11.7,14.6,11.7,25.3C196,412.1,192.4,421.1,186,427.3z M295.1,477.4
			h-24.2v-42.8h-29.8v42.8h-24.2V367.5h24.2v42.8h29.8v-42.8h24.2V477.4z M387.5,427.3c-8.4,7.9-20.9,11.5-35.5,11.5
			c-3.2,0-6.2-0.2-8.4-0.5v39h-24.5V369.6c7.6-1.3,18.3-2.3,33.4-2.3c15.2,0,26.1,2.9,33.4,8.7c7,5.5,11.7,14.6,11.7,25.3
			C397.5,412.1,393.9,421.1,387.5,427.3z M90.4,339.9V19.1h232.6v102.7c0,5.5,4.5,10,10,10h88.7l0,208.1H90.4z"/>
		<path class="st2" d="M353.5,386.5c-5,0-8.4,0.5-10.2,1v32.2c2.1,0.5,4.7,0.7,8.3,0.7c13.1,0,21.2-6.6,21.2-17.8
			C372.8,392.5,365.9,386.5,353.5,386.5z"/>
		<path class="st2" d="M152,386.5c-5,0-8.4,0.5-10.2,1v32.2c2.1,0.5,4.7,0.7,8.3,0.7c13.1,0,21.2-6.6,21.2-17.8
			C171.3,392.5,164.4,386.5,152,386.5z"/>
	</g>
	<g>
		<path class="st2" d="M122.2,203.7l91.5-47.2v22.4l-69.2,33.7v0.4l69.2,33.7v22.4l-91.5-47.2V203.7z"/>
		<path class="st3" d="M227.9,277.6l40.8-153.5h19.2l-40.8,153.5H227.9z"/>
		<path class="st3" d="M390.5,222.5L299,269.1v-22.4l70.7-33.7v-0.4L299,178.9v-22.4l91.5,46.6V222.5z"/>
	</g>
</g>
<g>
	<path class="st4" d="M272.2,238.8l-0.4-5.2c-1.2-10.8,2.4-22.6,12.4-34.6c9-10.6,14-18.4,14-27.4c0-10.2-6.4-17-19-17.2
		c-7.2,0-15.2,2.4-20.2,6.2l-4.8-12.6c6.6-4.8,18-8,28.6-8c23,0,33.4,14.2,33.4,29.4c0,13.6-7.6,23.4-17.2,34.8
		c-8.8,10.4-12,19.2-11.4,29.4l0.2,5.2H272.2z M267.8,266.8c0-7.4,5-12.6,12-12.6s11.8,5.2,11.8,12.6c0,7-4.6,12.4-12,12.4
		C272.6,279.2,267.8,273.8,267.8,266.8z"/>
</g>
</svg>
