<?xml version="1.0" encoding="utf-8"?>
<!-- Generator: Adobe Illustrator 22.1.0, SVG Export Plug-In . SVG Version: 6.00 Build 0)  -->
<svg version="1.1" id="Capa_1" xmlns="http://www.w3.org/2000/svg" xmlns:xlink="http://www.w3.org/1999/xlink" x="0px" y="0px"
	 viewBox="0 0 512 512" style="enable-background:new 0 0 512 512;" xml:space="preserve">
<style type="text/css">
	.st0{fill:#772953;}
</style>
<g>
	<g>
		<path class="st0" d="M441.6,122.7c0-2.4-0.8-4.7-2.4-6.5L340.5,3.4c0,0-0.1,0-0.1-0.1c-0.6-0.7-1.3-1.2-2-1.7
			c-0.2-0.1-0.4-0.3-0.7-0.4c-0.6-0.3-1.3-0.6-2-0.8c-0.2,0-0.4-0.1-0.5-0.2C334.5,0.1,333.7,0,333,0H90.4C79.3,0,70.3,9,70.3,20.1
			v471.8c0,11.1,9,20.1,20.1,20.1h331.3c11.1,0,20.1-9,20.1-20.1V123.8C441.7,123.4,441.7,123.1,441.6,122.7z M233.9,436.7
			c0,35.4-16.9,47.7-44.2,47.7c-6.5,0-14.9-1.1-20.4-2.9l3.1-22.7c3.9,1.3,8.8,2.2,14.4,2.2c11.8,0,19.1-5.4,19.1-24.7v-78.1h28
			L233.9,436.7L233.9,436.7z M287.6,484.2c-14.2,0-28.2-3.7-35.2-7.5l5.7-23.2c7.5,3.9,19.2,7.7,31.1,7.7c12.9,0,19.7-5.3,19.7-13.4
			c0-7.7-5.9-12.2-20.8-17.5c-20.6-7.2-34.1-18.6-34.1-36.6c0-21.2,17.7-37.4,47-37.4c14,0,24.3,2.9,31.7,6.3l-6.3,22.6
			c-5-2.4-13.8-5.9-26-5.9c-12.1,0-18,5.5-18,12c0,7.9,7,11.4,23,17.5c21.9,8.1,32.2,19.5,32.2,37
			C337.7,466.6,321.7,484.2,287.6,484.2z M421.6,340.9H90.4V20.1h232.6v102.7c0,5.5,4.5,10,10,10h88.7L421.6,340.9L421.6,340.9z"/>
	</g>
	<path class="st0" d="M162.1,142c0,7.5,5.4,13.7,11.9,13.7c1.9,0,3.4-1.7,3.4-3.9c0-2.1-1.5-3.9-3.4-3.9c-2.9,0-5.2-2.7-5.2-5.9
		c0-3.3,2.3-5.9,5.2-5.9h0c0.6,0,6.4-0.1,6.5,5.3v148.2c0,6.4,4.5,11.6,10.1,11.6h18c0,0,0-0.1,0-0.1h92c7.3,0,13.3-6.8,13.3-15.2
		c0-7-4.1-12.9-9.8-14.6c0,0,0-0.1,0-0.1h0V139.9c0-6.4-4.5-11.6-10.1-11.6H173.9c0,0,0,0,0,0C167.5,128.3,162.1,134.5,162.1,142z
		 M208.2,285.9c0-3-0.9-5.5-2.2-7.6h85.7c3.6,0,6.5,3.4,6.5,7.5c0,4.1-2.9,7.5-6.5,7.5h-85.7C207.3,291.3,208.2,288.9,208.2,285.9z
		 M204.9,214.7h79v7.1h-79L204.9,214.7L204.9,214.7z M204.9,189.1h79v7.1h-79L204.9,189.1L204.9,189.1z M204.9,163h79v7.1h-79
		L204.9,163L204.9,163z"/>
</g>
</svg>
