<?xml version="1.0" encoding="utf-8"?>
<!-- Generator: Adobe Illustrator 23.0.1, SVG Export Plug-In . SVG Version: 6.00 Build 0)  -->
<svg version="1.1" id="Capa_1" xmlns="http://www.w3.org/2000/svg" xmlns:xlink="http://www.w3.org/1999/xlink" x="0px" y="0px"
	 viewBox="0 0 548.3 548.3" style="enable-background:new 0 0 548.3 548.3;" xml:space="preserve">
<style type="text/css">
	.st0{fill:#772953;}
	.st1{display:none;}
	.st2{display:inline;}
	.st3{fill:#FFFFFF;}
	.st4{display:inline;fill:#FFFFFF;}
</style>
<g>
	<g>
		<path class="st0" d="M472.9,131.4c0-2.5-0.8-5-2.6-7L364.7,3.7c0,0-0.1,0-0.1-0.1c-0.6-0.7-1.4-1.3-2.1-1.8
			c-0.2-0.1-0.5-0.3-0.7-0.4c-0.7-0.4-1.4-0.7-2.1-0.9c-0.2-0.1-0.4-0.1-0.6-0.2c-0.8-0.2-1.6-0.3-2.5-0.3H96.8
			C84.9,0,75.3,9.6,75.3,21.5v505.3c0,11.9,9.6,21.5,21.5,21.5h354.8c11.9,0,21.5-9.6,21.5-21.5V132.6
			C473,132.2,473,131.8,472.9,131.4z M251.5,511.9L251.5,511.9l-1.7-43.9c-0.5-13.8-1-30.4-1-47.1h-0.5
			c-3.6,14.6-8.3,30.9-12.8,44.4L221.5,510h-20.2l-12.2-44.4c-3.7-13.4-7.6-29.7-10.4-44.7h-0.3c-0.7,15.5-1.2,33.1-2,47.4l-2,43.5
			h-24l7.3-114.6h34.5l11.2,38.2c3.6,13.3,7.1,27.5,9.7,41h0.5c3.2-13.3,7.1-28.4,10.9-41.1l12.2-38.1h33.8l6.3,114.6H251.5z
			 M378.9,497.1c-12.1,10-30.4,14.8-52.9,14.8c-13.4,0-22.9-0.9-29.4-1.7V397.7c9.5-1.5,21.9-2.4,35-2.4c21.8,0,35.9,3.9,46.9,12.2
			c11.9,8.8,19.4,22.9,19.4,43.2C398,472.6,390,487.8,378.9,497.1z M96.8,365.1V21.5h249.1v110c0,5.9,4.8,10.8,10.8,10.8h95l0,222.8
			H96.8z"/>
		<path class="st0" d="M334.4,415.2c-5.8,0-9.5,0.5-11.7,1v75c2.2,0.5,5.8,0.5,9,0.5c23.5,0.2,38.8-12.7,38.8-40.1
			C370.6,427.8,356.7,415.2,334.4,415.2z"/>
	</g>
	<g>
		<path class="st0" d="M173.1,147h119.8c4,0,7.2-3.2,7.2-7.2s-3.2-7.2-7.2-7.2H173.1c-4,0-7.2,3.2-7.2,7.2S169.1,147,173.1,147z"/>
		<path class="st0" d="M370.9,190.2H212.5c-3.2,0-5.8,3.2-5.8,7.2c0,4,2.6,7.2,5.8,7.2h158.4c3.2,0,5.8-3.2,5.8-7.2
			C376.7,193.4,374.1,190.2,370.9,190.2z"/>
		<circle class="st0" cx="172.9" cy="197.4" r="7.2"/>
		<path class="st0" d="M370.9,247.3H212.5c-3.2,0-5.8,3.2-5.8,7.2c0,4,2.6,7.2,5.8,7.2h158.4c3.2,0,5.8-3.2,5.8-7.2
			C376.7,250.5,374.1,247.3,370.9,247.3z"/>
		<circle class="st0" cx="172.9" cy="254.5" r="7.2"/>
		<path class="st0" d="M369.5,305.8H172.9c-4,0-7.2,3.2-7.2,7.2c0,4,3.2,7.2,7.2,7.2h196.6c4,0,7.2-3.2,7.2-7.2
			S373.5,305.8,369.5,305.8z"/>
	</g>
</g>
<g id="md_1_" class="st1">
	<g class="st2">
		<path class="st3" d="M378.9,497.1c-12.1,10-30.4,14.8-52.9,14.8c-13.4,0-22.9-0.9-29.4-1.7V397.7c9.5-1.5,21.9-2.4,35-2.4
			c21.8,0,35.9,3.9,46.9,12.2c11.9,8.8,19.4,22.9,19.4,43.2C398,472.6,390,487.8,378.9,497.1z"/>
		<path class="st3" d="M334.4,415.2c-5.8,0-9.5,0.5-11.7,1v75c2.2,0.5,5.8,0.5,9,0.5c23.5,0.2,38.8-12.7,38.8-40.1
			C370.6,427.8,356.7,415.2,334.4,415.2z"/>
	</g>
	<path class="st4" d="M251.5,511.9l-1.7-43.9c-0.5-13.8-1-30.4-1-47.1h-0.5c-3.6,14.6-8.3,30.9-12.8,44.4L221.5,510h-20.2
		l-12.2-44.4c-3.7-13.4-7.6-29.7-10.4-44.7h-0.3c-0.7,15.5-1.2,33.1-2,47.4l-2,43.5h-24l7.3-114.6h34.5l11.2,38.2
		c3.6,13.3,7.1,27.5,9.7,41h0.5c3.2-13.3,7.1-28.4,10.9-41.1l12.2-38.1h33.8l6.3,114.6L251.5,511.9L251.5,511.9z"/>
</g>
</svg>
