<svg xmlns="http://www.w3.org/2000/svg" viewBox="0 0 512 512"><title>assignment-03</title><g style="isolation:isolate"><path d="M256,208.49c73.9,0,137.24,84.46,137.24,84.46S329.9,377.4,256,377.4,118.76,293,118.76,293,182.1,208.49,256,208.49ZM298.23,293A42.23,42.23,0,1,0,256,335.17,42.22,42.22,0,0,0,298.23,293Z" style="fill:#eee"/><path d="M256,335.17A42.21,42.21,0,0,1,213.77,293h-95S182.1,377.4,256,377.4,393.24,293,393.24,293h-95A42.21,42.21,0,0,1,256,335.17Z" style="fill:#eee"/><path d="M256,335.17A42.21,42.21,0,0,1,213.77,293h-95S182.1,377.4,256,377.4,393.24,293,393.24,293h-95A42.21,42.21,0,0,1,256,335.17Z" style="fill:#999;opacity:0.25;mix-blend-mode:multiply"/><path d="M467.13,435.46H44.87v-285H467.13ZM393.24,293S329.9,208.49,256,208.49,118.76,293,118.76,293,182.1,377.4,256,377.4,393.24,293,393.24,293Z" style="fill:#aea79f"/><path d="M393.24,293S329.9,377.4,256,377.4,118.76,293,118.76,293H44.87V435.46H467.13V293Z" style="fill:#aea79f"/><path d="M393.24,293S329.9,377.4,256,377.4,118.76,293,118.76,293H44.87V435.46H467.13V293Z" style="fill:#999;opacity:0.25;mix-blend-mode:multiply"/><polygon points="504.08 113.48 504.08 472.41 256 472.41 256 435.46 467.13 435.46 467.13 150.43 256 150.43 256 113.48 504.08 113.48" style="fill:#eee"/><polygon points="44.87 435.46 256 435.46 256 472.41 7.92 472.41 7.92 113.48 256 113.48 256 150.43 44.87 150.43 44.87 435.46" style="fill:#eee"/><polygon points="44.87 435.46 256 435.46 256 472.41 7.92 472.41 7.92 113.48 256 113.48 256 150.43 44.87 150.43 44.87 435.46" style="fill:#999;opacity:0.25;mix-blend-mode:multiply"/><rect x="256" y="39.59" width="248.08" height="73.9" style="fill:#333"/><rect x="256" y="39.59" width="248.08" height="73.9" style="fill:#fff;opacity:0.5;mix-blend-mode:soft-light"/><rect x="7.92" y="39.59" width="248.08" height="73.9" style="fill:#333"/><path d="M256,250.72A42.23,42.23,0,1,1,213.77,293,42.22,42.22,0,0,1,256,250.72Z" style="fill:#38b44a"/><path d="M256,250.72A42.23,42.23,0,1,1,213.77,293,42.22,42.22,0,0,1,256,250.72Z" style="fill:#a2a2a2;opacity:0.25;mix-blend-mode:multiply"/><path d="M244.4,252.54a42.1,42.1,0,1,0,44.45,66.64A163.35,163.35,0,0,1,244.4,252.54Z" style="fill:#38b44a"/><path d="M0,31.67V480.33H512V31.67ZM496.17,47.5v58.07H15.84V47.5Zm-480.33,417V121.4H496.16V464.49Z" style="fill:#222"/><path d="M37,443.38h438.1V142.51H37Zm15.83-285H459.22v269.2H52.78Z" style="fill:#222"/><path d="M357.43,244.66C323.18,215.82,288.1,200.58,256,200.58s-67.18,15.24-101.43,44.08a293.82,293.82,0,0,0-42.14,43.54L108.87,293l3.56,4.75a294,294,0,0,0,42.14,43.53c34.25,28.85,69.33,44.09,101.43,44.09s67.18-15.24,101.43-44.09a294,294,0,0,0,42.14-43.53l3.56-4.75-3.56-4.75A293.82,293.82,0,0,0,357.43,244.66ZM256,369.48c-59.17,0-112.65-59.15-127.09-76.54,14.43-17.4,67.83-76.53,127.09-76.53S368.65,275.56,383.09,293C368.66,310.35,315.26,369.48,256,369.48Z" style="fill:#222"/><path d="M256,242.8A50.15,50.15,0,1,0,306.14,293,50.2,50.2,0,0,0,256,242.8Zm0,84.46A34.31,34.31,0,1,1,290.31,293,34.35,34.35,0,0,1,256,327.26Z" style="fill:#222"/><rect x="39.59" y="68.62" width="21.11" height="15.83" style="fill:#df382c"/><rect x="71.26" y="68.62" width="21.11" height="15.83" style="fill:#efb73e"/><rect x="102.93" y="68.62" width="21.11" height="15.83" style="fill:#38b44a"/><rect x="134.6" y="68.62" width="200" height="15.83" style="fill:#eee"/><rect x="134.6" y="68.62" width="200" height="15.83" style="fill:#999;opacity:0.25;mix-blend-mode:multiply"/><rect x="256" y="68.62" width="78.6" height="15.83" style="fill:#eee"/><rect x="240.16" y="285.03" width="31.67" height="15.83" style="fill:#fff"/><rect x="71.26" y="179.46" width="21.11" height="15.84" style="fill:#fff"/><rect x="71.26" y="390.6" width="21.11" height="15.83" style="fill:#fff"/><rect x="419.63" y="390.6" width="21.11" height="15.83" style="fill:#fff"/><rect x="419.63" y="179.46" width="21.11" height="15.84" style="fill:#fff"/></g></svg>