<?xml version="1.0" encoding="utf-8"?>
<!-- Generator: Adobe Illustrator 23.0.1, SVG Export Plug-In . SVG Version: 6.00 Build 0) -->
<svg version="1.1" id="Layer_1" xmlns="http://www.w3.org/2000/svg" xmlns:xlink="http://www.w3.org/1999/xlink" x="0px" y="0px" viewBox="0 0 512 512" style="enable-background:new 0 0 512 512;" xml:space="preserve">
	<style type="text/css">
		.st0 {
			fill: #FFFFFF;
		}
		.st1 {
			fill: #EFB73E;
		}
		.st2 {
			fill: #AEA79F;
		}
		.st3 {
			fill: #DF382C;
		}
		.st4 {
			fill: #222222;
		}
		.st5 {
			fill: #20B5E9;
		}
	</style>
	<rect x="43.5" y="130.7" class="st0" width="362.9" height="360.9"/>
	<g>
		<polygon class="st1" points="329,394.3 329,439.6 261,439.6 261,394.3 298.8,394.3 	"/>
		<polygon class="st2" points="329,296.1 329,341.4 261,341.4 261,296.1 298.8,296.1 	"/>
		<polygon class="st3" points="283.7,182.8 283.7,243.2 189.2,243.2 94.8,243.2 94.8,182.8 	"/>
		<polygon class="st1" points="223.2,394.3 223.2,439.6 155.3,439.6 155.3,394.3 189.2,394.3 	"/>
		<g>
			<polygon class="st2" points="189.2,296.1 223.2,296.1 223.2,341.4 189.2,341.4 155.3,341.4 155.3,296.1 		"/>
			<polygon class="st1" points="117.5,394.3 117.5,439.6 49.5,439.6 49.5,394.3 79.7,394.3 		"/>
		</g>
		<polygon class="st2" points="117.5,296.1 117.5,341.4 49.5,341.4 49.5,296.1 79.7,296.1 	"/>
		<path
			class="st4"
			d="M255.3,388.6v22.7h-26.4v-22.7h-34v-41.5h34v-56.7h-34v-15.1h98.2v15.1h-37.8v56.7h79.3v-56.7h-30.2l0-26.4
		H194.9v-15.1h94.4v-71.8H89.2v71.8h94.4V264H74.1v26.4H43.8v56.7h30.3v41.5H43.8v56.7h79.3v-56.7H85.4v-41.5h37.7v-56.7H85.4v-15.1
		h98.2v15.1h-34v56.7h34v41.5h-34v56.7h79.3v-22.7h26.4v22.7h79.3v-56.7H255.3z M323.3,301.7v34h-56.6v-34H323.3z M111.8,399.9v34
		H55.2v-34H111.8z M111.8,301.7v34H55.2v-34H111.8z M100.5,237.6v-49.1H278v49.1H100.5z M161,335.7v-34h56.6v34H161z M217.6,433.9
		H161v-34h56.6V433.9z M323.3,433.9h-56.6v-34h56.6V433.9z"/>
		<g>
			<rect x="117.5" y="207.3" class="st0" width="71.8" height="11.3"/>
			<rect x="200.6" y="207.3" class="st0" width="60.4" height="11.3"/>
			<rect x="68.4" y="313.1" class="st0" width="30.2" height="11.3"/>
			<rect x="174.1" y="313.1" class="st0" width="30.2" height="11.3"/>
			<rect x="279.9" y="313.1" class="st0" width="30.2" height="11.3"/>
			<rect x="279.9" y="411.3" class="st0" width="30.2" height="11.3"/>
			<rect x="174.1" y="411.3" class="st0" width="30.2" height="11.3"/>
			<rect x="68.4" y="411.3" class="st0" width="30.2" height="11.3"/>
		</g>
	</g>
	<g>
		<circle class="st5" cx="370.7" cy="118.3" r="77.8"/>
		<g>
			<circle class="st0" cx="370.7" cy="118.3" r="38.9"/>
			<circle class="st0" cx="370.7" cy="118.3" r="13"/>
			<circle class="st0" cx="481.2" cy="178.5" r="15.6"/>
		</g>
	</g>
	<g>
		<path class="st4" d="M15.6,95h263.1V79.5H0V487h378.5V232.4h-15.6v239H15.5V95H15.6z"/>
		<path
			class="st4"
			d="M455.9,126.1h8.1v-15.6h-8.1c-1.6-17.8-8.7-34-19.5-46.9l5.8-5.8l-11-11l-5.8,5.8
		c-13-10.8-29.2-17.9-46.9-19.5V25h-15.6v8.1c-17.8,1.6-34,8.7-46.9,19.5l-5.8-5.8l-11,11l5.8,5.8c-10.8,13-17.9,29.2-19.5,46.9
		h-8.1v15.6h8.1c1.6,17.8,8.7,34,19.5,46.9l-5.8,5.8l11,11l5.8-5.8c13,10.8,29.2,17.9,46.9,19.5v8.1h15.6v-8.1
		c17.8-1.6,34-8.7,46.9-19.5l5.8,5.8l11-11l-5.8-5.8C447.2,160.1,454.3,143.9,455.9,126.1z M370.7,188.3c-38.6,0-70-31.4-70-70
		s31.4-70,70-70s70,31.4,70,70S409.3,188.3,370.7,188.3z"/>
		<path
			class="st4"
			d="M417.4,118.3c0-5.7-1-11.2-2.9-16.3l7.3-4.2L414,84.4l-7.3,4.2c-7-8.4-16.9-14.4-28.2-16.3v-8.4h-15.6v8.4
		c-11.3,1.9-21.2,7.8-28.2,16.3l-7.3-4.2l-7.8,13.5l7.3,4.2c-1.9,5.1-2.9,10.5-2.9,16.3s1,11.2,2.9,16.3l-7.3,4.2l7.8,13.5l7.3-4.2
		c7,8.4,16.9,14.4,28.2,16.3v8.4h15.6v-8.4c11.3-1.9,21.2-7.8,28.2-16.3l7.3,4.2l7.8-13.5l-7.3-4.2
		C416.3,129.5,417.4,124.1,417.4,118.3z M370.7,149.5c-17.2,0-31.1-14-31.1-31.1s14-31.1,31.1-31.1s31.1,14,31.1,31.1
		S387.9,149.5,370.7,149.5z"/>
		<path class="st4" d="M370.7,97.6c-11.4,0-20.7,9.3-20.7,20.7s9.3,20.7,20.7,20.7s20.7-9.3,20.7-20.7S382.2,97.6,370.7,97.6z
		 M370.7,123.5c-2.9,0-5.2-2.3-5.2-5.2s2.3-5.2,5.2-5.2s5.2,2.3,5.2,5.2S373.6,123.5,370.7,123.5z"/>
		<path
			class="st4"
			d="M504.5,178.5c0-1.5-0.1-2.9-0.4-4.3l7.9-4.6l-7.8-13.5l-7.9,4.6c-2.2-1.8-4.6-3.3-7.4-4.3v-9.1h-15.6v9.1
		c-2.7,1-5.2,2.4-7.4,4.3l-7.9-4.6l-7.8,13.5l7.9,4.6c-0.3,1.4-0.4,2.8-0.4,4.3s0.1,2.9,0.4,4.3l-7.9,4.6l7.8,13.5l7.9-4.6
		c2.2,1.8,4.6,3.3,7.4,4.3v9.1h15.6v-9.1c2.7-1,5.2-2.4,7.4-4.3l7.9,4.6l7.8-13.5l-7.9-4.6C504.4,181.4,504.5,179.9,504.5,178.5z
		 M481.2,186.3c-4.3,0-7.8-3.5-7.8-7.8s3.5-7.8,7.8-7.8s7.8,3.5,7.8,7.8S485.5,186.3,481.2,186.3z"/>
	</g>
</svg>
