<?xml version="1.0" encoding="utf-8"?>
<!-- Generator: Adobe Illustrator 23.0.2, SVG Export Plug-In . SVG Version: 6.00 Build 0)  -->
<svg version="1.1" id="Capa_1" xmlns="http://www.w3.org/2000/svg" xmlns:xlink="http://www.w3.org/1999/xlink" x="0px" y="0px"
	 viewBox="0 0 548.3 548.3" style="enable-background:new 0 0 548.3 548.3;" xml:space="preserve">
<style type="text/css">
	.st0{fill:#772953;}
</style>
<g>
	<g>
		<path class="st0" d="M472.9,131.4c0-2.5-0.8-5-2.5-7L364.7,3.7c0,0-0.1,0-0.1-0.1c-0.6-0.7-1.4-1.3-2.1-1.8
			c-0.2-0.2-0.5-0.3-0.7-0.4c-0.7-0.4-1.4-0.7-2.1-0.9c-0.2-0.1-0.4-0.1-0.6-0.2c-0.8-0.2-1.6-0.3-2.5-0.3H96.8
			C84.9,0,75.3,9.6,75.3,21.5v505.3c0,11.9,9.6,21.5,21.5,21.5h354.8c11.9,0,21.5-9.6,21.5-21.5V132.6
			C473,132.2,473,131.8,472.9,131.4z M150,493.4l-6.6-13.2c-2.7-5.1-4.4-8.9-6.5-13.1h-0.2c-1.5,4.2-3.4,8-5.6,13.1l-6.1,13.2h-18.8
			l21.1-36.9l-20.3-36h18.9l6.4,13.3c2.2,4.4,3.8,8,5.5,12.1h0.2c1.7-4.7,3.1-7.9,5-12.1l6.2-13.3h18.8l-20.5,35.6l21.6,37.3
			L150,493.4L150,493.4z M238,493.4h-16.4v-30.5h-27.1v30.5h-16.5v-72.9h16.5v28h27.1v-28H238V493.4z M302.8,434.4h-19.9v59h-16.5
			v-59h-19.6v-13.8h56L302.8,434.4L302.8,434.4z M373.9,493.4l-1.1-27.9c-0.3-8.8-0.7-19.4-0.7-29.9h-0.3
			c-2.3,9.3-5.3,19.7-8.1,28.2l-8.9,28.4H342l-7.8-28.2c-2.4-8.5-4.9-18.9-6.6-28.4h-0.2c-0.4,9.8-0.8,21.1-1.3,30.2l-1.3,27.7
			h-15.2l4.7-72.9h21.9l7.1,24.3c2.3,8.4,4.5,17.5,6.2,26.1h0.3c2-8.4,4.5-18.1,6.9-26.2l7.8-24.2H386l4,72.9L373.9,493.4
			L373.9,493.4z M448.1,493.4h-45.5v-72.9h16.5v59h29L448.1,493.4L448.1,493.4z M96.8,365.1V21.5h249.1v110
			c0,5.9,4.8,10.8,10.8,10.8h95l0,222.8L96.8,365.1L96.8,365.1z"/>
		<polygon class="st0" points="114.3,233.1 176.4,261.9 176.4,248.2 129.5,227.7 129.5,227.4 176.4,206.9 176.4,193.1 114.3,222 		
			"/>
		<polygon class="st0" points="371.9,206.9 419.9,227.4 419.9,227.7 371.9,248.2 371.9,261.9 434,233.5 434,221.6 371.9,193.1 		"/>
	</g>
</g>
<g>
	<path class="st0" d="M300,167.5c-33.1,0-60,26.9-60,60c0,33.1,26.9,60,60,60s60-26.9,60-60C360,194.4,333.2,167.5,300,167.5z
		 M322.6,191.3l4.3-2.9c0,0-1.8-4.6-1.5-6.9c1-0.5,5.3,1.7,8.8,5.5c-2.4,8.9-8,7.9-8,7.9S322,194.8,322.6,191.3z M286.4,244.2
		c-0.3,1.3-1.9,4.6-3,6.7c-1.1,2.1-1.6,3-3,4c-1.3,1.1-2.1,3-2.1,3l-0.3,4.6c0,0,0.5,3.8,1.3,5.1c0.8,1.3-2.9,9.3-2.9,9.3
		c-2.3-0.5-3.6-3.2-4.4-5.3c-0.8-2.2-1.9-3.3-1.6-5.7c0.3-2.4-2.1-3.7-2.9-5c-0.8-1.4-1.9-3.2-1.9-4.6c0-1.4-3-3.2-3-3.2
		s-5.4-2.4-6.2-3.5c-0.8-1.1-1.6-5.7-1.9-7.5c-0.3-1.9,0.8-6.7,0.8-6.7s2.2-1.6,0.8-3c-1.3-1.3-1.6-4.8-1.6-4.8l-2.4-2.7
		c0,0-1.9-2.7-2.2-4c-0.3-1.3,0-2.1,0.3-3.5c0.3-1.4-0.5-3.8-0.5-5.1c10-24.6,26.9-30.4,26.9-30.4l1.3,5.6c0,0-3,0.8-4.6,0.3
		c-1.6-0.5-2.4-0.5-2.4-0.5l-2.1,3c0,0-0.8,1.9-1.1,3c-0.3,1.1,0.5,2.7,0.5,2.7s3.8,0.3,3.8-0.8c0-1.1-0.5-1.6-0.5-1.6l-0.5-1.9
		c0,0,2.4-1.3,8.9-0.8c6.4,0.5,4,5.1,6.7,6.2c2.7,1.1-2.2,4.8-3.2,7c-1.1,2.2-2.7-2.7-2.7-2.7s1.6-1.9-1.1-2.4
		c-2.7-0.5-4.5,4.8-3.1,4.6c1.3-0.3,2.8,1.4,2.6,2.8c-0.3,1.3-0.3,1.2-1.6,4.2c-1.3,3-4.3,5.1-4.3,5.1s-1.4-0.8-0.6,0.8
		c0.8,1.6-0.3,5.4-0.3,6.4c0,1.1-3.2-1.9-3.7-4.6c-0.5-2.7-3.7-0.3-4.8-0.1c-1.1,0.3-3-0.5-3.6-1.8c-0.5-1.4-5.4,2.7-6.7,3.5
		c-1.3,0.8-0.8,3,1.3,1.9c2.1-1.1,4-0.3,3.5,1.9c-0.5,2.1-2.7,0.8-2.4,2.1c0.3,1.3,2.4,2.7,2.9,4.6c0.5,1.9,5.7,0.3,7.3-0.5
		c1.6-0.8,6.2-1.6,6.7,0.5c0.6,2.1,5.6,2.9,7.5,3.5c1.9,0.5,5.6,0.8,7.8,3C290.5,238.8,286.7,242.8,286.4,244.2z M298.5,181.3
		c-0.3,2.7-4.6,6.2-4,7.3c0.5,1.1,0,5.7-3.8,1.6c-3.8-4-7.5-5.4-7.3-8.1c0.1-0.5,3.9-1.4,4-2.3c5.7-5.3,14.8-4.2,15.5-3
		C301.3,179.5,298.8,178.6,298.5,181.3z M345.2,199.4c3.6,6.2,8.9,22.9,7,25.8c-1.2-0.5-2.2-1-2.2-1h-7.2l4.3,5c0,0,2.1,3,5,2.9
		c-1.9,22.5-20.7,36.9-20.7,36.9c-2.9-2.9-1.4-5.4-1.4-5.4l0.8-4.3l0.5-7.2c0,0,0-7.5-7.2-3.9c-7.7,2-4.5,2-12.3,2.5
		c-7.8,0.5-6.5-15.9-6.5-15.9c0-24.6,18.9-6,18.9-6c10.8,7.2,12.2-5.9,12.2-5.9l7.9-2.8l0.7-3.6l-1.1-5l-11.4-4.7
		c0,0-1.1,3.7,1.8,8.3c0,0-1,5.2-3.4,3.9l-6.6-3.3c0,0-2.2-1-5.8,1.2c-3.6,2.1-9.7-0.1-9.7-0.1s0.5-3.6,4.3-5.5l3.1-2
		c0,0-0.8-3.7-0.1-6.5c0.7-2.9,2-0.4,4.8-2.5c2.9-2.1,4.8,4.2,9.1,3.5c4.3-0.7,2.2-1.4,5-2.9c2.9-1.4,5,2.9,5,2.9l5.7,0.7
		C345.7,204.2,344.8,197.7,345.2,199.4z"/>
	<polygon class="st0" points="188.2,287.5 205,287.5 240.4,167.5 223.7,167.5 	"/>
</g>
</svg>
