<svg xmlns="http://www.w3.org/2000/svg" viewBox="0 0 512 512"><title>assignment-07</title><g style="isolation:isolate"><rect x="7.92" y="406.43" width="496.17" height="73.9" style="fill:#333"/><polygon points="298.23 258.64 213.77 300.87 213.77 216.41 298.23 258.64" style="fill:#e7eced"/><path d="M504.08,105.57V406.43H7.92V105.57ZM213.77,300.87l84.46-42.23-84.46-42.23v84.46Z" style="fill:#e95420"/><g style="opacity:0.5;mix-blend-mode:soft-light"><path d="M504.08,105.57V406.43H7.92V105.57ZM213.77,300.87l84.46-42.23-84.46-42.23v84.46Z" style="fill:#fff"/></g><rect x="7.92" y="31.67" width="496.17" height="73.9" style="fill:#333"/><rect x="7.92" y="31.67" width="496.17" height="73.9" style="fill:#fff;opacity:0.25;mix-blend-mode:soft-light"/><path d="M246.9,284.3l-33.13,16.57V239.43a482.67,482.67,0,0,1-60.91-133.86H7.92V406.43h392A486.76,486.76,0,0,1,246.9,284.3Z" style="fill:#e95420"/><rect x="44.87" y="435.46" width="337.81" height="15.83" style="fill:#fff"/><rect x="446.02" y="435.46" width="21.11" height="15.83" style="fill:#fff"/><rect x="403.79" y="435.46" width="21.11" height="15.83" style="fill:#fff"/><rect x="44.87" y="60.7" width="26.39" height="15.84" style="fill:#fff"/><rect x="87.09" y="60.7" width="26.39" height="15.84" style="fill:#fff"/><rect x="440.74" y="60.7" width="26.39" height="15.84" style="fill:#fff"/><path d="M0,23.75v464.5H512V23.75Zm496.17,89.73v285H15.84v-285Zm0,358.93H15.84V414.35H496.16v58.06ZM15.84,97.65V39.59H496.16V97.65Z" style="fill:#222"/><path d="M205.86,203.6V313.68l110.07-55Zm15.83,25.62,58.83,29.42-58.83,29.41V229.22Z" style="fill:#222"/></g></svg>