<?xml version="1.0" encoding="utf-8"?>
<!-- Generator: Adobe Illustrator 23.0.0, SVG Export Plug-In . SVG Version: 6.00 Build 0)  -->
<svg version="1.1" id="Capa_1" xmlns="http://www.w3.org/2000/svg" xmlns:xlink="http://www.w3.org/1999/xlink" x="0px" y="0px"
	 viewBox="0 0 512 512" style="enable-background:new 0 0 512 512;" xml:space="preserve">
<style type="text/css">
	.st0{fill:#772953;}
</style>
<path class="st0" d="M302.7,404.9c0-5.3-4-8.2-11.3-8.2c-3.4,0-5.5,0.2-6.8,0.4v16.4h5.2C298.2,413.5,302.7,410.1,302.7,404.9z"/>
<path class="st0" d="M290,424.9h-5.5v19.9c1.6,0.2,3.4,0.2,6.2,0.2c7.2,0,13.6-2.7,13.6-10.1C304.3,427.8,297.9,424.9,290,424.9z"/>
<path class="st0" d="M441.7,122.7c0-2.3-0.8-4.7-2.4-6.5L340.6,3.4c0,0-0.1,0-0.1-0.1c-0.6-0.6-1.3-1.2-2-1.7
	c-0.2-0.2-0.4-0.3-0.6-0.4c-0.6-0.4-1.3-0.6-2-0.8c-0.2-0.1-0.4-0.1-0.5-0.2C334.6,0.1,333.8,0,333,0H90.4C79.3,0,70.3,9,70.3,20.1
	V492c0,11.1,9,20.1,20.1,20.1h331.3c11.1,0,20.1-9,20.1-20.1V123.8C441.8,123.5,441.7,123.1,441.7,122.7z M175,456.8h-17.6
	l-6.1-30.8c-1.3-7.3-2.5-14-3.4-22.1h-0.2c-1.3,8.1-2.4,14.9-4.1,22.1l-6.8,30.8h-17.7l-17-71.7h17.3l5.5,29.6
	c1.6,8.5,3,17.7,4.3,25h0.2c1.2-7.8,2.9-16.4,4.7-25.2l6.1-29.4h17.2l5.7,30.2c1.6,8.4,2.8,16,3.9,24h0.2c1.1-8,2.7-16.4,4.1-24.9
	l5.8-29.4h16.5L175,456.8z M253.2,456.8L253.2,456.8h-45.7v-71.7h44.3v13.3h-28v14.9h26.3v13.2h-26.3v17h29.5L253.2,456.8
	L253.2,456.8z M313.7,450.5c-5.1,4-13.7,6.4-27.7,6.4c-7.8,0-13.7-0.5-17.2-1.1v-69.2c4.2-0.8,12.6-1.4,20.6-1.4
	c9.7,0,15.7,1,20.8,3.9c4.9,2.6,8.4,7.4,8.4,13.8c0,6.3-3.7,12.1-11.6,15.1v0.2c8.1,2.2,14,8.2,14,17.4
	C321,441.9,318.1,446.9,313.7,450.5z M395.6,456.8l-1.1-27.4c-0.4-8.6-0.6-19.1-0.6-29.5h-0.4c-2.2,9.1-5.2,19.4-8,27.8l-8.7,28
	h-12.6l-7.6-27.8c-2.3-8.4-4.7-18.6-6.5-28H350c-0.4,9.7-0.7,20.8-1.3,29.7l-1.3,27.2h-15l4.6-71.7h21.6l7,23.9
	c2.2,8.3,4.5,17.2,6.1,25.6h0.4c2.1-8.3,4.5-17.7,6.8-25.7l7.6-23.8h21.1l3.9,71.7L395.6,456.8L395.6,456.8z M421.7,341H90.4l0,0
	V20.1H323v102.8c0,5.6,4.5,10,10,10h88.7V341z"/>
<path class="st0" d="M251.1,110.6c-52.3,0-94.9,42.6-94.9,94.9s42.6,94.9,94.9,94.9s94.9-42.6,94.9-94.9S303.4,110.6,251.1,110.6z
	 M251.1,283.1c-42.7,0-77.6-34.9-77.6-77.6c0-42.8,34.9-77.6,77.6-77.6c42.8,0,77.6,34.9,77.6,77.6
	C328.6,248.3,293.8,283.1,251.1,283.1z"/>
<path class="st0" d="M222.7,149c-0.9,0.4-1.5,1.3-1.5,2.3v111.4c0,1,0.5,2,1.5,2.3l1.2,0.3c0.6,0,1.2-0.2,1.6-0.5l87.3-55.7
	c0.6-0.5,1-1.3,1-2.1s-0.4-1.5-1-2.1l-87.3-55.6C224.6,148.6,223.5,148.5,222.7,149z"/>
</svg>
