<?xml version="1.0" encoding="utf-8"?>
<!-- Generator: Adobe Illustrator 23.0.0, SVG Export Plug-In . SVG Version: 6.00 Build 0)  -->
<svg version="1.1" id="Layer_1" xmlns="http://www.w3.org/2000/svg" xmlns:xlink="http://www.w3.org/1999/xlink" x="0px" y="0px"
	 viewBox="0 0 512 512" style="enable-background:new 0 0 512 512;" xml:space="preserve">
<style type="text/css">
	.st0{fill:#772953;}
</style>
<title>web-av-ogg-video</title>
<path class="st0" d="M145.4,389.7c-16.6,0-26.2,15.8-26.2,36.9c0,21.2,10,36.2,26.4,36.2c16.6,0,26.1-15.8,26.1-36.8
	C171.6,406.5,162.3,389.7,145.4,389.7z"/>
<path class="st0" d="M441.6,122.7c0-2.4-0.8-4.7-2.4-6.5L340.5,3.4c0,0-0.1,0-0.1-0.1c-0.6-0.6-1.3-1.2-2-1.7
	c-0.2-0.1-0.4-0.3-0.7-0.4c-0.6-0.3-1.3-0.6-2-0.8c-0.2-0.1-0.4-0.1-0.5-0.2C334.5,0.1,333.8,0,333,0H90.3C79.3,0,70.3,9,70.3,20.1
	v471.8c0,11.1,9,20.1,20.1,20.1h331.3c11.1,0,20.1-9,20.1-20.1V123.8C441.7,123.4,441.7,123.1,441.6,122.7z M144.3,482.2
	c-32.2,0-51-24.3-51-55.2c0-32.5,20.8-56.8,52.8-56.8c33.3,0,51.5,25,51.5,54.9C197.6,460.7,176,482.2,144.3,482.2z M304.3,475.5
	c-11.7,3.9-23.9,5.9-36.2,6.1c-19.8,0-34.1-5-44.1-14.6c-10-9.3-15.4-23.5-15.3-39.4c0.1-36,26.4-56.6,62-56.6
	c14,0,24.8,2.7,30.1,5.3l-5.1,19.6c-6-2.6-13.4-4.7-25.3-4.7c-20.4,0-35.9,11.6-35.9,35.1c0,22.4,14,35.6,34.1,35.6
	c5.6,0,10.1-0.6,12.1-1.6v-22.7h-16.8v-19.1h40.4L304.3,475.5z M414,475.5c-11.7,3.9-23.9,5.9-36.2,6.1c-19.8,0-34.1-5-44.1-14.6
	c-10-9.3-15.5-23.5-15.3-39.4c0.2-36,26.4-56.6,62-56.6c14,0,24.8,2.7,30.1,5.3l-5.2,19.6c-6-2.6-13.4-4.7-25.3-4.7
	c-20.4,0-35.9,11.6-35.9,35.1c0,22.4,14,35.6,34.1,35.6c5.6,0,10.1-0.6,12.1-1.6v-22.7h-16.8v-19.1H414L414,475.5L414,475.5z
	 M90.3,340.9V20.1h232.6v102.7c0,5.5,4.5,10,10,10h88.7v208.1H90.3z"/>
<path class="st0" d="M251,108.4c-53.4,0-96.6,43.2-96.6,96.6s43.2,96.6,96.6,96.6s96.6-43.2,96.6-96.6S304.4,108.4,251,108.4
	C251,108.4,251,108.4,251,108.4z M191.5,226.5c-13.3-0.9-23.5-12.4-22.6-25.7c0.9-13.3,12.4-23.5,25.7-22.6
	c13.3,0.9,23.5,12.4,22.6,25.7c0,0,0,0.1,0,0.1C216.3,217.3,204.8,227.3,191.5,226.5z M244.2,286.7c-13.3-0.9-23.5-12.4-22.6-25.7
	c0.9-13.3,12.4-23.5,25.7-22.6s23.5,12.4,22.6,25.7c0,0,0,0,0,0C269,277.4,257.5,287.5,244.2,286.7L244.2,286.7z M237.5,205.6
	c0-7.2,5.9-13.1,13.1-13.1s13.1,5.9,13.1,13.1c0,7.2-5.9,13.1-13.1,13.1C243.4,218.7,237.5,212.8,237.5,205.6L237.5,205.6z
	 M251.1,171.5c-13.3-0.9-23.4-12.5-22.5-25.8c0.9-13.3,12.5-23.4,25.8-22.5c13.3,0.9,23.4,12.4,22.5,25.7
	C276,162.3,264.5,172.4,251.1,171.5C251.1,171.5,251.1,171.5,251.1,171.5z M302.6,233.7c-13.3-0.9-23.4-12.5-22.5-25.8
	c0.9-13.3,12.5-23.4,25.8-22.5c13.3,0.9,23.4,12.4,22.5,25.7C327.5,224.5,316,234.6,302.6,233.7
	C302.6,233.7,302.6,233.7,302.6,233.7z"/>
</svg>
