<svg xmlns="http://www.w3.org/2000/svg" viewBox="0 0 512 512"><title>assignment-05</title><g style="isolation:isolate"><polygon points="504.08 113.48 504.08 472.41 256 472.41 256 435.46 467.13 435.46 467.13 150.43 256 150.43 256 113.48 504.08 113.48" style="fill:#eee"/><polygon points="44.87 435.46 256 435.46 256 472.41 7.92 472.41 7.92 113.48 256 113.48 256 150.43 44.87 150.43 44.87 435.46" style="fill:#eee"/><polygon points="44.87 435.46 256 435.46 256 472.41 7.92 472.41 7.92 113.48 256 113.48 256 150.43 44.87 150.43 44.87 435.46" style="fill:#999;opacity:0.25;mix-blend-mode:multiply"/><polygon points="467.13 435.46 256 435.46 44.87 435.46 44.87 150.43 256 150.43 467.13 150.43 467.13 435.46" style="fill:#e95420"/><polygon points="467.13 435.46 256 435.46 44.87 435.46 44.87 150.43 256 150.43 467.13 150.43 467.13 435.46" style="fill:#999;opacity:0.25;mix-blend-mode:multiply"/><rect x="44.87" y="150.43" width="422.27" height="142.51" style="fill:#e95420"/><rect x="256" y="39.59" width="248.08" height="73.9" style="fill:#333"/><rect x="256" y="39.59" width="248.08" height="73.9" style="fill:#fff;opacity:0.5;mix-blend-mode:soft-light"/><rect x="7.92" y="39.59" width="248.08" height="73.9" style="fill:#333"/><path d="M0,31.67V480.33H512V31.67ZM496.17,47.5v58.07H15.84V47.5Zm-480.33,417V121.4H496.16V464.49Z" style="fill:#222"/><path d="M37,443.38h438.1V142.51H37Zm15.83-285H459.22v269.2H52.78Z" style="fill:#222"/><rect x="39.59" y="68.62" width="21.11" height="15.83" style="fill:#df382c"/><rect x="71.26" y="68.62" width="21.11" height="15.83" style="fill:#efb73e"/><rect x="102.93" y="68.62" width="21.11" height="15.83" style="fill:#38b44a"/><rect x="134.6" y="68.62" width="200" height="15.83" style="fill:#eee"/><rect x="134.6" y="68.62" width="200" height="15.83" style="fill:#999;opacity:0.25;mix-blend-mode:multiply"/><rect x="256" y="68.62" width="78.6" height="15.83" style="fill:#eee"/><polygon points="176.5 383 86.45 292.95 176.5 202.9 187.7 214.09 108.85 292.95 187.7 371.8 176.5 383" style="fill:#fff"/><polygon points="335.5 383 324.3 371.8 403.15 292.95 324.3 214.09 335.5 202.9 425.55 292.95 335.5 383" style="fill:#fff"/><rect x="156.83" y="285.03" width="198.33" height="15.83" transform="translate(-118.07 399.84) rotate(-64.8)" style="fill:#fff"/></g></svg>