<svg xmlns="http://www.w3.org/2000/svg" viewBox="0 0 512 512"><title>assignment-09</title><g style="isolation:isolate"><rect x="404.64" y="154.15" width="99.1" height="209.2" style="fill:#20b5e9"/><rect x="404.64" y="154.15" width="99.1" height="209.2" style="fill:#999;opacity:0.66;mix-blend-mode:multiply"/><rect x="305.55" y="154.15" width="99.1" height="209.2" style="fill:#20b5e9"/><rect x="305.55" y="154.15" width="99.1" height="209.2" style="fill:#999;opacity:0.33;mix-blend-mode:multiply"/><rect x="206.45" y="154.15" width="99.1" height="209.2" style="fill:#20b5e9"/><rect x="107.36" y="154.15" width="99.1" height="209.2" style="fill:#20b5e9"/><rect x="107.36" y="154.15" width="99.1" height="209.2" style="fill:#fff;opacity:0.5;mix-blend-mode:soft-light"/><rect x="8.26" y="154.15" width="99.1" height="209.2" style="fill:#20b5e9"/><rect x="8.26" y="154.15" width="99.1" height="209.2" style="fill:#fff;mix-blend-mode:soft-light"/><rect x="8.26" y="291.78" width="99.1" height="71.57" style="fill:#20b5e9"/><rect x="8.26" y="291.78" width="99.1" height="71.57" style="fill:#999;opacity:0.2;mix-blend-mode:multiply"/><rect x="107.36" y="291.78" width="99.1" height="71.57" style="fill:#20b5e9"/><rect x="107.36" y="291.78" width="99.1" height="71.57" style="fill:#999;opacity:0.4;mix-blend-mode:multiply"/><rect x="206.45" y="291.78" width="99.1" height="71.57" style="fill:#20b5e9"/><rect x="206.45" y="291.78" width="99.1" height="71.57" style="fill:#999;opacity:0.6000000000000001;mix-blend-mode:multiply"/><rect x="305.55" y="291.78" width="99.1" height="71.57" style="fill:#20b5e9"/><rect x="305.55" y="291.78" width="99.1" height="71.57" style="fill:#999;opacity:0.8;mix-blend-mode:multiply"/><rect x="404.64" y="291.78" width="99.1" height="71.57" style="fill:#20b5e9"/><rect x="404.64" y="291.78" width="99.1" height="71.57" style="fill:#999;mix-blend-mode:multiply"/><polygon points="294.54 440.43 294.54 484.47 228.47 484.47 228.47 440.43 261.5 401.89 294.54 440.43" style="fill:#eee"/><polygon points="481.72 27.53 481.72 71.57 448.69 110.11 415.66 71.57 415.66 27.53 481.72 27.53" style="fill:#eee"/><polygon points="85.33 27.53 85.33 71.57 52.3 110.11 19.27 71.57 19.27 27.53 85.33 27.53" style="fill:#eee"/><rect x="19.27" y="27.53" width="66.07" height="44.04" style="fill:#eee"/><rect x="415.66" y="27.53" width="66.07" height="44.04" style="fill:#eee"/><rect x="228.47" y="440.43" width="66.07" height="44.04" style="fill:#eee"/><g style="opacity:0.25;mix-blend-mode:multiply"><rect x="19.27" y="27.53" width="66.07" height="44.04" style="fill:#999"/><rect x="415.66" y="27.53" width="66.07" height="44.04" style="fill:#999"/><rect x="228.47" y="440.43" width="66.07" height="44.04" style="fill:#999"/></g><path d="M0,145.89V371.61H512V145.89ZM99.1,355.1H16.52V162.41H99.1Zm99.09,0H115.61V162.41h82.58Zm16.52,0V162.41h82.58V355.1Zm99.1,0V162.41h82.58V355.1Zm181.67,0H412.9V162.41h82.58Z" style="fill:#222"/><path d="M93.59,74.62V19.27H11V74.62L52.3,122.8ZM27.53,35.78H77.07V68.52L52.3,97.42,27.53,68.52Z" style="fill:#222"/><path d="M220.21,437.38v55.35H302.8V437.38L261.51,389.2Zm66.07,38.83H236.73V443.48l24.78-28.9,24.77,28.9v32.73Z" style="fill:#222"/><path d="M490,74.62V19.27H407.4V74.62l41.29,48.18ZM423.91,35.78h49.55V68.52l-24.77,28.9-24.78-28.9V35.78Z" style="fill:#222"/><polygon points="49.55 220.22 33.03 220.22 33.03 178.93 68.82 178.93 68.82 195.44 49.55 195.44 49.55 220.22" style="fill:#fff"/><polygon points="148.65 220.22 132.13 220.22 132.13 178.93 167.91 178.93 167.91 195.44 148.65 195.44 148.65 220.22" style="fill:#fff"/><polygon points="247.74 220.22 231.23 220.22 231.23 178.93 267.01 178.93 267.01 195.44 247.74 195.44 247.74 220.22" style="fill:#fff"/><polygon points="346.84 220.22 330.32 220.22 330.32 178.93 366.11 178.93 366.11 195.44 346.84 195.44 346.84 220.22" style="fill:#fff"/><polygon points="445.94 220.22 429.42 220.22 429.42 178.93 465.2 178.93 465.2 195.44 445.94 195.44 445.94 220.22" style="fill:#fff"/></g></svg>