<svg xmlns="http://www.w3.org/2000/svg" viewBox="0 0 525 358.6"><defs><style>.a{fill:#e44d26;}.b{fill:#f16529;}.c{fill:#ebebeb;}.d{fill:#fff;}.e{fill:#264de4;}.f{fill:#2965f1;}</style></defs><title>html-css-icons</title><path d="M4.52,46.58l15.19-4.06,4,15,14-3.75-4-15.06L48.89,34.7,61.1,80.26,45.91,84.33,41.84,69.14,28,72.85,32.05,88,16.73,92.15M73,44.5l-13.4,3.6L55.56,32.91,97.62,21.64l4.07,15.19-13.47,3.6,8.14,30.38L81.17,74.88m23.12-55,15.91-4.26L134.28,29l5.47-18.66,15.91-4.26,12.21,45.56-15.19,4.07-6.05-22.59-6.24,19.23-15-13.53,6,22.58-14.92,4M163.19,4.07,178.38,0l8.17,30.51,21.53-5.77,4,15.05L175.4,49.63"/><path class="a" d="M87.32,357.73,0,119,239.56,54.8l43.71,250.28-90.9,53.52"/><path class="b" d="M187,337.75,125.16,107l97.92-26.24L260.3,294.39"/><path class="c" d="M57.9,157.05l75.27-20.17,8,30L98.81,178.22l11,30,39.62-10.62,8,29.91-67.09,18m5.35,14.7,30.11-8.07,8.54,23.41h35.95l8.39,31.3-66.14-.68"/><path class="d" d="M208.18,116.78,133,136.92l8,30,72.37-19.39M219,178.93,149.3,197.6l8,30,37-9.91,6.94,39.89-31.07,17.95,8.35,31.17,56.84-33.49"/><polygon class="e" points="525 119 437.68 357.6 332.31 358.5 241.78 305.14 285.49 54.82 525 119"/><polygon class="f" points="423.17 337.02 497.79 133.13 399.89 106.9 338.03 337.76 423.17 337.02"/><polygon class="c" points="305.8 178.88 300.46 209.58 367.56 227.56 375.59 197.57 305.8 178.88"/><polygon class="c" points="391.85 136.88 391.75 136.86 316.67 116.74 311.36 147.45 383.82 166.87 391.85 136.88"/><polygon class="c" points="346.37 306.64 354.73 275.45 354.58 275.45 323.61 257.48 327.88 233 311.65 228.65 297.78 224.93 289.37 273.14 346.22 306.65 346.37 306.64"/><path d="M359.66,3.49,396,13.22,391.9,28.4l-21.13-5.66-4.06,15.19,21.12,5.66-4.06,15.19-36.32-9.73Z"/><path d="M403.24,15.16l36.31,9.73L436,38.1l-21.13-5.66-.7,2.64,21.13,5.66-8.14,30.37-36.32-9.73,3.72-13.86,21.13,5.66.7-2.64-21.13-5.66Z"/><path d="M446.82,26.84l36.31,9.73-3.54,13.21-21.13-5.66-.7,2.64,21.13,5.66-8.14,30.37-36.32-9.73,3.72-13.87,21.13,5.67.7-2.64-21.13-5.67Z"/><polygon class="d" points="404.38 237.42 390.48 275.38 354.61 275.44 346.26 306.64 412.29 306.07 414.1 301.13 442.3 224.08 445.19 216.22 466.86 156.98 391.75 136.86 383.71 166.84 425.97 178.16 415.01 208.14 375.49 197.55 367.45 227.53 404.38 237.42"/></svg>