<svg xmlns="http://www.w3.org/2000/svg" viewBox="0 0 418.92 430.47">
  <defs>
    <style>
      .a {
        fill: #E95420;
      }
      .b {
        fill: #fff;
      }
      .c {
        fill: #E95420;
      }
    </style>
  </defs>
  <title>logo</title><path
    class="a"
    d="M418.92,162.88a6,6,0,0,0-3.32-5.37L371.19,135.3l44.41-22.2a6,6,0,0,0,0-10.74L212.14.63a6,6,0,0,0-5.36,0L3.32,102.36a6,6,0,0,0,0,10.74l44.41,22.2L3.32,157.51a6,6,0,0,0,0,10.73l44.41,22.21L3.32,212.66a6,6,0,0,0,0,10.73l77.84,38.93v101a6,6,0,0,0,3.32,5.36l122.3,61.15a5.93,5.93,0,0,0,5.36,0l122.3-61.15a6,6,0,0,0,3.32-5.36v-101l77.84-38.93a6,6,0,0,0,0-10.73l-44.42-22.21,44.42-22.21A6,6,0,0,0,418.92,162.88Z"/><polygon class="b" points="314.76 349.21 314.76 352.81 209.46 405.46 104.16 352.81 104.16 349.21 94.16 344.21 94.16 358.99 209.46 416.64 324.76 358.99 324.76 344.21 314.76 349.21"/><polygon class="b" points="209.46 322.74 94.16 265.09 94.16 331.42 209.46 389.06 324.76 331.42 324.76 265.09 209.46 322.74"/><polygon class="b" points="353.3 196.04 209.46 267.96 65.62 196.04 39.54 209.08 21.65 218.03 39.54 226.97 204.99 309.69 209.46 311.93 213.93 309.69 379.38 226.97 397.27 218.03 379.38 209.08 353.3 196.04"/><polygon class="c" points="330.94 207.22 352.55 218.03 209.46 289.57 66.37 218.03 87.98 207.22 76.8 201.63 44.01 218.03 209.46 300.75 374.9 218.03 342.12 201.63 330.94 207.22"/><polygon class="b" points="353.3 140.9 209.46 212.81 65.62 140.89 39.54 153.94 21.65 162.88 39.54 171.82 204.99 254.55 209.46 256.78 213.93 254.55 379.38 171.82 397.27 162.88 379.38 153.94 353.3 140.9"/><polygon class="c" points="330.94 152.07 352.55 162.88 209.46 234.42 66.37 162.88 87.98 152.07 76.8 146.48 44.01 162.88 209.46 245.6 374.9 162.88 342.12 146.49 330.94 152.07"/><polygon class="b" points="379.38 98.79 213.93 16.06 209.46 13.83 204.99 16.06 39.54 98.79 21.65 107.73 39.54 116.67 204.99 199.4 209.46 201.63 213.93 199.4 379.38 116.67 397.27 107.73 379.38 98.79"/><path
    class="c"
    d="M209.46,25,44,107.73l165.45,82.72,165.45-82.72Zm92.9,107.81-92.9,46.45L116.31,132.7l20.48-10.23-4.47-8.94-27.19,13.58L66.37,107.73,209.46,36.19l143.08,71.54-39,19.51-27.29-13.7-4.49,8.94Zm-59.31-41,27.48,13.8-4.48,8.93L238.56,100.8ZM209.46,75l17.88,9-4.48,8.94-13.41-6.73L196,92.89l-4.46-9ZM175.77,91.83l4.47,9-27.65,13.8-4.47-8.94Z"/></svg>
