<?xml version="1.0" encoding="utf-8"?>
<!-- Generator: Adobe Illustrator 23.0.0, SVG Export Plug-In . SVG Version: 6.00 Build 0)  -->
<svg version="1.1" id="Layer_1" xmlns="http://www.w3.org/2000/svg" xmlns:xlink="http://www.w3.org/1999/xlink" x="0px" y="0px"
	 viewBox="0 0 429.8 763.2" style="enable-background:new 0 0 429.8 763.2;" xml:space="preserve">
<style type="text/css">
	.st0{fill:none;stroke:#EAEAEA;stroke-width:12.99;stroke-miterlimit:10;}
	.st1{fill:none;stroke:#EAEAEA;stroke-width:11.26;stroke-linecap:round;stroke-miterlimit:10;}
	.st2{fill:#EAEAEA;}
</style>
<title>page-bg-ref</title>
<path class="st0" d="M206,704.1l31.1-34.6c3.3-3.7,9-4,12.7-0.7l10.6,9.5c3.7,3.3,4,9,0.7,12.7L230,725.7c-3.3,3.7-9,4-12.7,0.7
	l-10.6-9.5C203,713.5,202.7,707.8,206,704.1z"/>
<path class="st0" d="M267.2,636.2l31.1-34.6c3.3-3.7,9-4,12.7-0.7l10.6,9.5c3.7,3.3,4,9,0.7,12.7l-31.1,34.6c-3.3,3.7-9,4-12.7,0.7
	l-10.6-9.5C264.1,645.6,263.8,639.9,267.2,636.2z"/>
<line class="st1" x1="243.2" y1="686.8" x2="285" y2="640.4"/>
<path class="st0" d="M34,462.4l8.6-11.4c3-4,8.6-4.8,12.6-1.8l37.1,28c4,3,4.8,8.6,1.8,12.6l-8.6,11.4c-3,4-8.6,4.8-12.6,1.8
	l-37.1-28C31.8,472,31,466.4,34,462.4z"/>
<path class="st0" d="M106.9,517.5l8.6-11.4c3-4,8.6-4.8,12.6-1.8l37.1,28c4,3,4.8,8.6,1.8,12.6l-8.6,11.4c-3,4-8.6,4.8-12.6,1.8
	l-37.1-28C104.7,527.1,103.9,521.5,106.9,517.5z"/>
<line class="st1" x1="75.6" y1="484.9" x2="125.4" y2="522.5"/>
<path class="st0" d="M325.4,363.9l19-42.5c2-4.5,7.3-6.6,11.9-4.6l13,5.8c4.5,2,6.6,7.3,4.6,11.9l-19,42.5c-2,4.5-7.3,6.6-11.9,4.6
	l-13-5.8C325.4,373.7,323.3,368.4,325.4,363.9z"/>
<path class="st0" d="M288.1,447.3l19-42.5c2-4.5,7.3-6.6,11.9-4.6l13,5.8c4.5,2,6.6,7.3,4.6,11.9l-19,42.5c-2,4.5-7.3,6.6-11.9,4.6
	l-13-5.8C288.1,457.2,286.1,451.9,288.1,447.3z"/>
<line class="st1" x1="343.6" y1="362.4" x2="318.2" y2="419.4"/>
<path class="st0" d="M48.3,251.6l13.9-3.2c4.8-1.1,9.7,1.9,10.8,6.7l10.5,45.3c1.1,4.8-1.9,9.7-6.7,10.8l-13.9,3.2
	c-4.8,1.1-9.7-1.9-10.8-6.7l-10.5-45.3C40.4,257.5,43.5,252.7,48.3,251.6z"/>
<path class="st0" d="M69,340.6l13.9-3.2c4.8-1.1,9.7,1.9,10.8,6.7l10.5,45.3c1.1,4.8-1.9,9.7-6.7,10.8l-13.9,3.2
	c-4.8,1.1-9.7-1.9-10.8-6.7l-10.5-45.3C61.1,346.6,64.2,341.7,69,340.6z"/>
<line class="st1" x1="65.8" y1="295.5" x2="79.9" y2="356.3"/>
<path class="st0" d="M237.8,210.2l37.3-27.8c4-3,9.6-2.2,12.6,1.8l8.5,11.4c3,4,2.2,9.6-1.8,12.6l-37.3,27.8c-4,3-9.6,2.2-12.6-1.8
	l-8.5-11.4C233,218.9,233.8,213.2,237.8,210.2z"/>
<path class="st0" d="M164.6,264.9l37.3-27.8c4-3,9.6-2.2,12.6,1.8l8.5,11.4c3,4,2.2,9.6-1.8,12.6l-37.3,27.8c-4,3-9.6,2.2-12.6-1.8
	l-8.5-11.4C159.8,273.6,160.6,267.9,164.6,264.9z"/>
<line class="st1" x1="254.4" y1="217.9" x2="204.5" y2="255.2"/>
<path class="st0" d="M50.5,14.7l12.4-7.1c4.3-2.5,9.8-1,12.3,3.4l23,40.4c2.5,4.3,1,9.8-3.4,12.3l-12.4,7.1c-4.3,2.5-9.8,1-12.3-3.4
	L47.1,27C44.6,22.7,46.1,17.2,50.5,14.7z"/>
<path class="st0" d="M95.7,94.1l12.4-7.1c4.3-2.5,9.8-1,12.3,3.4l23,40.4c2.5,4.3,1,9.8-3.4,12.3l-12.4,7.1c-4.3,2.5-9.8,1-12.3-3.4
	l-23-40.4C89.8,102.1,91.3,96.6,95.7,94.1z"/>
<line class="st1" x1="79.8" y1="51.8" x2="110.6" y2="106"/>
<path class="st2" d="M81.1,684.5c13.6-1,25.5-7,35.6-17.9c10.7-11.5,15.9-24.8,15.7-40s-6-28.2-17.5-38.8
	c-10.5-10-24.5-15.3-39-14.8c-15.1,0.3-28.7,7-40.7,20c-7.4,8-13,17.4-16.6,27.6c-1.2,3.4,0.5,7.2,3.9,8.6l0,0
	c3.5,1.3,7.3-0.4,8.6-3.9c0,0,0,0,0,0l0-0.1c2.9-8.6,7.6-16.5,13.7-23.2c9.3-10,19.5-14.9,30.7-14.7c10.8,0.1,21.2,4.2,29,11.7
	c8.9,8.3,13.6,18.1,14.1,29.5c0.6,11.1-3.4,21.9-11.1,29.9c-7.3,7.8-16,12.2-25.9,13.1c-9.6,1-19.1-2.3-26-9
	c-5.1-4.7-8.2-9.9-9.2-15.5s-0.4-9.8,2.1-12.4c1.3-1.5,2.8-1.5,4.3,0c1.5,1.4,2.9,2.9,4.2,4.4l22.1,26.3l9.8-10.5l-1.8-3
	c4.4-0.5,8.4-2.6,11.5-5.8c4.7-5.1,6.7-11.3,6-18.6c-0.7-7.3-4.2-14-10.5-19.8s-12.7-8.8-19.4-9.1s-12.2,1.8-16.4,6.3
	c-3.7,4-5.2,9-4.5,15c-5.2-0.9-9.8,0.8-13.7,5c-5.7,6.2-8,14-6.8,23.4c1.2,9.5,5.6,17.7,13.1,24.8C55.9,681.6,67.5,685.5,81.1,684.5
	z M65.8,625.2c-0.8-4.2,0-7.6,2.4-10.1c1.6-1.8,3.9-2.3,6.7-1.7c3.2,0.8,6.1,2.4,8.4,4.8c3.4,3.1,5.4,6.4,6.1,9.9
	c0.7,3.4,0,6.3-2.1,8.5c-1.8,2-4.4,3-7.1,3c-3.1,0-6.1-1.3-8.3-3.5C68.6,633.2,66.5,629.4,65.8,625.2L65.8,625.2z"/>
<path class="st2" d="M395.4,13.3c-11.9-6.6-25.1-8.1-39.6-4.5c-15.2,3.8-26.9,12-35,24.9c-8.1,12.8-10.4,26.8-6.7,42
	c3.3,14.1,12.1,26.3,24.5,33.8c12.8,8,27.8,9.9,45.1,5.6c10.5-2.6,20.4-7.4,29-14c2.9-2.2,3.6-6.3,1.5-9.3l0,0
	c-2.2-3-6.4-3.7-9.4-1.5l-0.1,0.1c-7.2,5.6-15.4,9.6-24.2,11.9c-13.2,3.3-24.5,1.8-33.7-4.5c-9-6-15.4-15.2-17.9-25.7
	c-2.9-11.8-1.4-22.6,4.4-32.4c5.6-9.6,14.9-16.5,25.7-18.9c10.4-2.6,20.1-1.5,28.9,3.2c8.6,4.5,14.7,12.5,16.8,21.9
	c1.7,6.7,1.4,12.7-0.8,18c-2.2,5.3-5,8.4-8.6,9.2c-1.9,0.5-3.1-0.3-3.6-2.4c-0.5-2-0.8-4-1.1-6l-4.1-34.1l-13.9,3.4l-0.1,3.5
	c-3.9-2-8.4-2.5-12.7-1.5c-6.7,1.6-11.8,5.7-15.3,12.2s-4.1,14-2,22.4c2,8.2,5.8,14.3,11.3,18.3s11.2,5.3,17.2,3.8
	c5.3-1.3,9.3-4.7,12-10.1c3.9,3.6,8.6,4.7,14.2,3.3c8.2-2,14.3-7.3,18.5-15.9c4.2-8.6,5.1-17.9,2.6-27.9
	C414.9,29.6,407.4,19.9,395.4,13.3z M375.7,71.3c-1.6,3.9-4.2,6.3-7.6,7.2c-2.3,0.6-4.5-0.2-6.5-2.3c-2.2-2.4-3.7-5.4-4.4-8.6
	c-1.1-4.5-1-8.3,0.3-11.6c1-2.9,3.4-5.2,6.4-6c2.6-0.6,5.4-0.1,7.6,1.4c2.6,1.7,4.4,4.4,5,7.5C377.6,63.1,377.3,67.4,375.7,71.3
	L375.7,71.3z"/>
<path class="st2" d="M28.8,135.2c-9.5,2.8-17.1,8.9-22.7,18.2c-5.8,9.2-7.6,20.4-5.1,31c2.5,10.8,8.6,19.2,18.4,25
	c9,5.5,19.9,7.2,30.1,4.6c10.7-2.6,19.4-9.4,26-20.5c4.1-6.8,6.7-14.4,7.7-22.2c0.4-2.6-1.4-5.1-4.1-5.5l0,0
	c-2.7-0.4-5.2,1.4-5.6,4.1c0,0,0,0,0,0.1c0,0,0,0.1,0,0.1c-0.8,6.6-2.9,12.9-6.2,18.6c-5.1,8.5-11.7,13.6-19.7,15.2
	c-7.7,1.6-15.8,0.2-22.5-3.9c-7.6-4.5-12.5-10.8-14.6-18.9c-2.1-7.8-0.9-16.1,3.4-23c3.6-6.4,9.4-11.2,16.4-13.4
	c6.7-2.2,14-1.3,20,2.5c4,2.2,7.1,5.6,8.9,9.7c1.6,3.9,1.8,6.9,0.4,9.2c-0.7,1.2-1.8,1.5-3.1,0.7c-1.3-0.8-2.5-1.6-3.7-2.5
	l-19.8-15.4l-5.4,9l1.8,1.8c-3.1,1-5.6,3.1-7.3,5.9c-2.6,4.3-3.1,9.5-1.5,14.2c1.6,5.1,5.1,9.3,10.5,12.6c5.3,3.2,10.4,4.3,15.3,3.6
	c4.5-0.5,8.5-3.1,10.8-7c2.1-3.5,2.4-7.7,0.9-11.4c3.8-0.1,7.2-2.3,9-5.7c3.1-5.3,3.6-11.2,1.3-17.8c-2.3-6.6-7-12.2-13.2-15.6
	C47.3,133.5,38.4,132.4,28.8,135.2z M48.8,175.2c1.2,2.9,1.1,5.4-0.2,7.6c-1,1.5-2.7,2.4-4.5,2.2c-2.4-0.1-4.7-0.8-6.7-2.1
	c-2.5-1.4-4.6-3.5-5.8-6.1c-1-2-0.9-4.4,0.2-6.4c1-1.7,2.7-2.9,4.6-3.2c2.2-0.5,4.6,0,6.5,1.2C45.6,170,47.6,172.4,48.8,175.2
	L48.8,175.2z"/>
<path class="st2" d="M244.7,134.6c-0.8-5.6-3.8-10.7-8.3-14.1c-4.7-4-10.7-5.9-16.9-5.4c-6.1,0.4-11.7,3.4-15.5,8.2
	c-3.9,4.6-5.7,10.5-5.1,16.4c0.5,6.2,3.6,11.6,9.3,16.2c3.5,2.8,7.5,4.9,11.8,6.1c1.4,0.4,3-0.4,3.4-1.8l0,0c0.4-1.5-0.4-3-1.8-3.4
	h-0.1c-3.6-1-7-2.7-9.9-5c-4.4-3.5-6.6-7.6-6.9-12.2c-0.3-4.4,1.2-8.8,4-12.2c2.9-3.7,7.1-6.1,11.7-6.6c4.5-0.5,9.1,0.8,12.6,3.8
	c3.3,2.5,5.4,6.2,6.1,10.3c0.7,3.9-0.4,7.9-3,10.9c-1.5,2-3.7,3.5-6.1,4.2c-2.3,0.6-4,0.4-5.2-0.5c-0.5-0.3-0.7-1-0.3-1.6
	c0.1-0.1,0.1-0.2,0.2-0.2c0.5-0.6,1.1-1.3,1.7-1.8l10.2-9.8l-4.6-3.7L231,133c-0.3-1.8-1.3-3.4-2.7-4.6c-2.2-1.8-5-2.5-7.8-2
	c-6.2,1.4-10.7,6.7-11.1,13.1c-0.1,2.5,1,5,3,6.6c1.8,1.4,4.1,2,6.3,1.5c-0.2,2.1,0.7,4.2,2.4,5.5c2.8,2.2,6.4,3,9.8,2.2
	c3.9-0.8,7.4-2.9,9.8-6.1C244.1,145.1,245.6,139.8,244.7,134.6z M220.8,142.5c-1.4,0.5-3,0.2-4.2-0.7c-0.8-0.7-1.1-1.7-0.9-2.7
	c0.2-1.3,0.8-2.6,1.7-3.6c1-1.3,2.3-2.3,3.9-2.8c1.2-0.4,2.6-0.2,3.6,0.6c0.9,0.7,1.4,1.7,1.4,2.9c0.1,1.3-0.4,2.6-1.2,3.5
	C223.9,141.1,222.5,142,220.8,142.5z"/>
<path class="st2" d="M85.5,751.9c-0.9,1-0.9,2.5,0,3.5c0,0,0,0,0,0l7.2,7.2l0,0c1,1,2.5,1,3.5,0c0,0,0,0,0,0l14.7-14.7l6,10.5
	c0.7,1.2,2.2,1.6,3.4,0.9c0.5-0.3,0.9-0.7,1.1-1.2l18.6-46.6c0.5-1.3-0.1-2.7-1.3-3.2c-0.6-0.2-1.3-0.2-1.9,0l-46.6,18.6
	c-0.5,0.2-0.9,0.6-1.2,1c-0.7,1.2-0.3,2.7,0.9,3.4c0,0,0,0,0,0l10.4,6L85.5,751.9L85.5,751.9z"/>
<path class="st2" d="M142.2,702.4c-1,1-1,2.5,0,3.5c1,1,2.5,1,3.5,0l5.5-5.5l0,0c1-1,1-2.5,0-3.5c-1-1-2.5-1-3.5,0l0,0L142.2,702.4z
	"/>
<path class="st2" d="M148.2,716.5h7.8c1.4-0.1,2.4-1.3,2.3-2.6c-0.1-1.2-1.1-2.2-2.3-2.3h-7.7c-1.4,0.1-2.4,1.3-2.3,2.6
	C146,715.4,147,716.4,148.2,716.5L148.2,716.5z"/>
<path class="st2" d="M146.8,721.5L146.8,721.5c-1-0.9-2.6-0.8-3.5,0.2c-0.9,0.9-0.9,2.4,0,3.3l5.5,5.5c1,1,2.5,1,3.5,0
	c1-1,1-2.5,0-3.5L146.8,721.5L146.8,721.5z"/>
<path class="st2" d="M134.1,702.3c1.4,0,2.5-1.1,2.5-2.5l0,0v-7.7c-0.1-1.4-1.3-2.4-2.6-2.3c-1.2,0.1-2.2,1.1-2.3,2.3v7.7
	C131.6,701.2,132.7,702.3,134.1,702.3L134.1,702.3z"/>
<path class="st2" d="M124.8,705.5c1.4,0,2.5-1.1,2.4-2.5c0-0.6-0.3-1.2-0.7-1.7l-5.5-5.5l0,0c-1-1-2.5-1-3.5,0c-1,1-1,2.5,0,3.5
	l5.5,5.5C123.4,705.2,124.1,705.5,124.8,705.5L124.8,705.5z"/>
<path class="st2" d="M216.4,449.5l7.4-3.4c1-0.5,1.4-1.6,1-2.6l-7-15.2l9.6-1.6c0.4-0.1,0.8-0.3,1.1-0.6c0.7-0.8,0.7-2.1-0.1-2.8
	l-30.1-27.1c-0.8-0.7-2.1-0.6-2.8,0.2c-0.3,0.4-0.5,0.8-0.5,1.3l1,40.5c0,0.8,0.5,1.4,1.2,1.8c0.7,0.3,1.5,0.2,2.1-0.3l7.5-6.2
	l7,15.2C214.3,449.5,215.4,449.9,216.4,449.5z"/>
<path class="st2" d="M192.3,391.8c0.5,1,1.6,1.4,2.6,1c1-0.5,1.5-1.6,1-2.6l-2.6-5.7c-0.1-0.1-0.1-0.3-0.2-0.4
	c-0.5-1-1.7-1.3-2.7-0.8c-1,0.5-1.3,1.7-0.8,2.7c0,0.1,0.1,0.1,0.1,0.2L192.3,391.8z"/>
<path class="st2" d="M204.5,391.1l2.2-5.9c0.3-1.1-0.4-2.2-1.4-2.4c-0.9-0.2-1.9,0.2-2.3,1l-2.2,5.8c-0.5,1-0.1,2.2,0.8,2.7
	c1,0.5,2.2,0.1,2.7-0.8C204.4,391.4,204.5,391.3,204.5,391.1L204.5,391.1z"/>
<path class="st2" d="M208,393.7c-1.1,0.3-1.6,1.5-1.3,2.5s1.5,1.6,2.5,1.3c0.1,0,0.3-0.1,0.4-0.2l5.7-2.6c0.9-0.5,1.4-1.6,0.9-2.6
	c-0.5-1-1.6-1.4-2.6-1L208,393.7L208,393.7z"/>
<path class="st2" d="M188.7,395.3l-5.9-2.2c-0.2-0.1-0.3-0.1-0.5-0.2c-1.1-0.2-2.2,0.4-2.4,1.5s0.4,2.2,1.5,2.4l5.9,2.2
	c1.1,0.3,2.2-0.4,2.4-1.4C190,396.7,189.5,395.7,188.7,395.3L188.7,395.3z"/>
<path class="st2" d="M189.6,404.4c-0.4-1-1.6-1.5-2.6-1.1l-5.7,2.6c-1.1,0.3-1.6,1.5-1.3,2.5s1.5,1.6,2.5,1.3c0.1,0,0.3-0.1,0.4-0.2
	l5.7-2.6c0.5-0.2,0.8-0.6,1-1.1C189.8,405.4,189.8,404.9,189.6,404.4z"/>
<path class="st2" d="M184.8,30.9l-5.7-1.4c-0.4-0.1-0.8,0-1.1,0.2c-0.3,0.2-0.6,0.5-0.6,0.9l-2.8,11.6l-6.1-3.3
	c-0.3-0.2-0.6-0.2-0.9-0.2c-0.8,0.1-1.3,0.9-1.2,1.6c0,0,0,0,0,0l4.9,28.5c0.1,0.8,0.9,1.3,1.6,1.2c0.4-0.1,0.7-0.3,0.9-0.6
	l17.4-23.2c0.3-0.4,0.4-1,0.1-1.5c-0.2-0.5-0.7-0.8-1.3-0.8l-7,0.2l2.8-11.6C186,31.9,185.5,31.1,184.8,30.9z"/>
<path class="st2" d="M172.7,74c0.2-0.7-0.3-1.5-1-1.7c-0.4-0.1-0.8,0-1.1,0.2c-0.3,0.2-0.6,0.5-0.6,0.9l-1,4.3c0,0.1,0,0.1-0.1,0.2
	c-0.1,0.8,0.4,1.5,1.2,1.6c0.8,0.1,1.5-0.4,1.6-1.2L172.7,74z"/>
<path class="st2" d="M165.6,69l-3.8,2.3l-0.1,0.1c-0.6,0.4-0.8,1.3-0.4,2c0.4,0.6,1.3,0.8,2,0.4l3.8-2.3h0.1c0.7-0.4,0.9-1.3,0.4-2
	C167.1,68.8,166.2,68.6,165.6,69z"/>
<path class="st2" d="M164.8,65.9c0.8,0.2,1.5-0.3,1.7-1s-0.3-1.5-1-1.7l-4.3-1c-0.4-0.1-0.8,0-1.1,0.2c-0.3,0.2-0.6,0.5-0.6,0.9
	c-0.2,0.8,0.3,1.5,1,1.7L164.8,65.9L164.8,65.9z"/>
<path class="st2" d="M176.3,73.6l2.3,3.8c0,0,0,0.1,0.1,0.1c0.4,0.6,1.3,0.8,2,0.4c0.6-0.4,0.8-1.3,0.4-2l-2.3-3.8l0,0
	c-0.4-0.7-1.3-0.8-2-0.4C176.1,72.1,176,72.9,176.3,73.6L176.3,73.6z"/>
<path class="st2" d="M179.8,68.2c-0.2,0.8,0.3,1.5,1.1,1.7l4.3,1c0.8,0.2,1.5-0.3,1.7-1.1c0.1-0.7-0.3-1.4-1-1.6l-4.4-1.1
	c-0.7-0.2-1.5,0.2-1.7,1C179.8,68.1,179.8,68.1,179.8,68.2z"/>
</svg>
